<svg width="19" height="19" viewBox="0 0 19 19" fill="none" xmlns="http://www.w3.org/2000/svg">
<rect width="19" height="19" fill="#282731"/>
<g clip-path="url(#clip0)">
<rect width="360" height="675" transform="translate(-252 -46)" fill="#FDFDFD"/>
<rect x="-252" y="-21" width="360" height="319" fill="#F6F6F8"/>
<rect x="-13.5" y="-4.5" width="69" height="29" rx="14.5" fill="#FEDB41" fill-opacity="0.02" stroke="#F4B844"/>
<g clip-path="url(#clip1)">
<path d="M9.50003 0C14.7467 0 19.0001 4.25331 19.0001 9.50003C19.0001 14.7467 14.7467 19.0001 9.50003 19.0001C4.25331 19.0001 0 14.7467 0 9.50003C0 4.25331 4.25331 0 9.50003 0Z" fill="#F4B844"/>
<path d="M9.50008 16.66C13.4539 16.66 16.6592 13.4547 16.6592 9.50087C16.6592 5.54703 13.4539 2.3418 9.50008 2.3418C5.54623 2.3418 2.341 5.54703 2.341 9.50087C2.341 13.4547 5.54623 16.66 9.50008 16.66Z" fill="#FEDB41"/>
<path d="M10.5176 14V6.67578H13.1719V5.54492H6.54492V6.67578H9.20508V14H10.5176Z" fill="#E29C15"/>
</g>
</g>
<defs>
<clipPath id="clip0">
<rect width="360" height="675" fill="white" transform="translate(-252 -46)"/>
</clipPath>
<clipPath id="clip1">
<rect width="19" height="19" fill="white"/>
</clipPath>
</defs>
</svg>
