<svg width="20" height="20" viewBox="0 0 20 20" fill="none" xmlns="http://www.w3.org/2000/svg">
<!-- <rect width="20" height="20" fill="#282731"/> -->
<g clip-path="url(#clip0)">
<rect width="360" height="835" transform="translate(-165 -539)" fill="#FDFDFD"/>
<path d="M19 9.50003C19.0034 10.8199 18.6951 12.1219 18.1 13.3C17.3944 14.7118 16.3097 15.8992 14.9674 16.7293C13.6251 17.5594 12.0782 17.9994 10.5 18C9.18012 18.0035 7.8781 17.6951 6.69998 17.1L0.999985 19L2.89998 13.3C2.30492 12.1219 1.99654 10.8199 1.99998 9.50003C2.0006 7.92179 2.4406 6.37488 3.2707 5.03258C4.10081 3.69028 5.28824 2.6056 6.69998 1.90003C7.8781 1.30496 9.18012 0.996587 10.5 1.00003H11C13.0843 1.11502 15.053 1.99479 16.5291 3.47089C18.0052 4.94699 18.885 6.91568 19 9.00003V9.50003Z" stroke="#282828" stroke-width="1.5" stroke-linecap="round" stroke-linejoin="round"/>
</g>
<defs>
<clipPath id="clip0">
<rect width="360" height="835" fill="white" transform="translate(-165 -539)"/>
</clipPath>
</defs>
</svg>
