<svg width="24" height="24" viewBox="0 0 24 24" fill="none" xmlns="http://www.w3.org/2000/svg">
<rect width="24" height="24" fill="#282731"/>
<g clip-path="url(#clip0)">
<rect width="360" height="675" transform="translate(-295 -563)" fill="#FDFDFD"/>
<g filter="url(#filter0_d)">
<rect x="-279" y="-155" width="328" height="336" rx="6" fill="white"/>
<rect x="-278.5" y="-154.5" width="327" height="335" rx="5.5" stroke="#EFEFEF"/>
</g>
<rect x="-33.999" y="-3" width="71" height="28" rx="6" fill="#BE180D" fill-opacity="0.12"/>
<path d="M-15.1494 16L-17.7954 11.38V10.764H-17.4874C-16.7407 10.764 -16.1714 10.6567 -15.7794 10.442C-15.378 10.2273 -15.1447 9.84 -15.0794 9.28H-17.7954V8.384H-15.0934C-15.1867 7.86133 -15.434 7.48333 -15.8354 7.25C-16.2274 7.01667 -16.778 6.9 -17.4874 6.9H-17.7954V6.004H-11.9994V6.9H-14.6454C-14.1974 7.264 -13.9314 7.75867 -13.8474 8.384H-11.9994V9.28H-13.8194C-13.8847 9.96133 -14.146 10.4933 -14.6034 10.876C-15.0514 11.2493 -15.6487 11.4873 -16.3954 11.59L-13.7214 16H-15.1494ZM-7.16565 16.168C-5.10765 16.168 -3.86165 15.034 -3.86165 13.48C-3.86165 11.982 -5.16365 11.254 -6.01765 11.184C-5.13565 11.03 -4.00165 10.358 -4.00165 9.014C-4.00165 7.432 -5.37365 6.522 -7.16565 6.522C-8.60765 6.522 -9.68565 7.152 -10.3576 7.964L-9.71365 8.692C-9.02765 7.95 -8.27165 7.558 -7.24965 7.558C-6.11565 7.558 -5.16365 8.118 -5.16365 9.154C-5.16365 10.232 -6.15765 10.694 -7.33365 10.694C-7.71165 10.694 -8.14565 10.694 -8.29965 10.68V11.744C-8.15965 11.73 -7.72565 11.73 -7.33365 11.73C-5.96165 11.73 -5.00965 12.22 -5.00965 13.382C-5.00965 14.46 -5.83565 15.132 -7.19365 15.132C-8.29965 15.132 -9.25165 14.628 -9.79765 13.9L-10.4836 14.628C-9.90965 15.468 -8.74765 16.168 -7.16565 16.168ZM2.95132 16V13.634H4.26732V12.612H2.95132V6.662H1.35532L-2.64868 12.668V13.634H1.78932V16H2.95132ZM1.78932 12.612H-1.48668L1.78932 7.74V12.612ZM8.92396 16.168C10.8 16.168 12.242 14.992 12.242 13.088C12.242 11.17 10.828 10.106 9.27396 10.106C8.33596 10.106 7.53796 10.498 7.08996 10.946V7.698H11.64V6.662H5.92796V11.702L6.78196 11.996C7.41196 11.38 8.11196 11.114 8.93796 11.114C10.198 11.114 11.08 11.898 11.08 13.13C11.08 14.264 10.198 15.132 8.92396 15.132C7.77596 15.132 6.96396 14.684 6.34796 13.9L5.63396 14.67C6.33396 15.594 7.34196 16.168 8.92396 16.168ZM14.5778 16.14C14.9978 16.14 15.3478 15.79 15.3478 15.37C15.3478 14.95 14.9978 14.6 14.5778 14.6C14.1578 14.6 13.8078 14.95 13.8078 15.37C13.8078 15.79 14.1578 16.14 14.5778 16.14ZM22.2423 16V13.634H23.5583V12.612H22.2423V6.662H20.6463L16.6423 12.668V13.634H21.0803V16H22.2423ZM21.0803 12.612H17.8043L21.0803 7.74V12.612Z" fill="#BE180D"/>
<g filter="url(#filter1_d)">
<circle cx="12" cy="12" r="28" fill="#3550A3"/>
</g>
<path d="M12 20H21" stroke="white" stroke-width="2" stroke-linecap="round" stroke-linejoin="round"/>
<path d="M16.5 3.50023C16.8978 3.1024 17.4374 2.87891 18 2.87891C18.2786 2.87891 18.5544 2.93378 18.8118 3.04038C19.0692 3.14699 19.303 3.30324 19.5 3.50023C19.697 3.69721 19.8532 3.93106 19.9598 4.18843C20.0665 4.4458 20.1213 4.72165 20.1213 5.00023C20.1213 5.2788 20.0665 5.55465 19.9598 5.81202C19.8532 6.06939 19.697 6.30324 19.5 6.50023L7 19.0002L3 20.0002L4 16.0002L16.5 3.50023Z" stroke="white" stroke-width="2" stroke-linecap="round" stroke-linejoin="round"/>
</g>
<defs>
<filter id="filter0_d" x="-283" y="-158" width="336" height="344" filterUnits="userSpaceOnUse" color-interpolation-filters="sRGB">
<feFlood flood-opacity="0" result="BackgroundImageFix"/>
<feColorMatrix in="SourceAlpha" type="matrix" values="0 0 0 0 0 0 0 0 0 0 0 0 0 0 0 0 0 0 127 0"/>
<feOffset dy="1"/>
<feGaussianBlur stdDeviation="2"/>
<feColorMatrix type="matrix" values="0 0 0 0 0 0 0 0 0 0 0 0 0 0 0 0 0 0 0.06 0"/>
<feBlend mode="normal" in2="BackgroundImageFix" result="effect1_dropShadow"/>
<feBlend mode="normal" in="SourceGraphic" in2="effect1_dropShadow" result="shape"/>
</filter>
<filter id="filter1_d" x="-20" y="-16" width="64" height="64" filterUnits="userSpaceOnUse" color-interpolation-filters="sRGB">
<feFlood flood-opacity="0" result="BackgroundImageFix"/>
<feColorMatrix in="SourceAlpha" type="matrix" values="0 0 0 0 0 0 0 0 0 0 0 0 0 0 0 0 0 0 127 0"/>
<feOffset dy="4"/>
<feGaussianBlur stdDeviation="2"/>
<feColorMatrix type="matrix" values="0 0 0 0 0.2375 0 0 0 0 0.58825 0 0 0 0 1 0 0 0 0.24 0"/>
<feBlend mode="normal" in2="BackgroundImageFix" result="effect1_dropShadow"/>
<feBlend mode="normal" in="SourceGraphic" in2="effect1_dropShadow" result="shape"/>
</filter>
<clipPath id="clip0">
<rect width="360" height="675" fill="white" transform="translate(-295 -563)"/>
</clipPath>
</defs>
</svg>
