<svg width="22" height="22" viewBox="0 0 22 22" fill="none" xmlns="http://www.w3.org/2000/svg">
<rect width="22" height="22" fill="#282731"/>
<g clip-path="url(#clip0)">
<rect width="360" height="835" transform="translate(-68 -538)" fill="#FDFDFD"/>
<path d="M5.99998 21H2.99998C2.46955 21 1.96084 20.7893 1.58577 20.4142C1.2107 20.0391 0.999985 19.5304 0.999985 19V12C0.999985 11.4696 1.2107 10.9609 1.58577 10.5858C1.96084 10.2107 2.46955 10 2.99998 10H5.99998M13 8V4C13 3.20435 12.6839 2.44129 12.1213 1.87868C11.5587 1.31607 10.7956 1 9.99998 1L5.99998 10V21H17.28C17.7623 21.0055 18.2304 20.8364 18.5979 20.524C18.9654 20.2116 19.2077 19.7769 19.28 19.3L20.66 10.3C20.7035 10.0134 20.6842 9.72068 20.6033 9.44225C20.5225 9.16382 20.3821 8.90629 20.1918 8.68751C20.0016 8.46873 19.7661 8.29393 19.5016 8.17522C19.237 8.0565 18.9499 7.99672 18.66 8H13Z" stroke="#282828" stroke-width="1.5" stroke-linecap="round" stroke-linejoin="round"/>
</g>
<defs>
<clipPath id="clip0">
<rect width="360" height="835" fill="white" transform="translate(-68 -538)"/>
</clipPath>
</defs>
</svg>
