<svg width="25" height="25" viewBox="0 0 25 25" fill="none" xmlns="http://www.w3.org/2000/svg">
<!-- <rect width="25" height="25" fill="#282731"/> -->
<path d="M-93.5 -6.5H265.5V48.5H-93.5V-6.5Z" fill="#FEFEFE" stroke="#EEEEEE"/>
<path d="M5.25977 17.6659H4.25977C3.72933 17.6659 3.22062 17.4552 2.84555 17.0801C2.47048 16.705 2.25977 16.1963 2.25977 15.6659V5.66589C2.25977 5.13546 2.47048 4.62675 2.84555 4.25168C3.22062 3.87661 3.72933 3.66589 4.25977 3.66589H20.2598C20.7902 3.66589 21.2989 3.87661 21.674 4.25168C22.0491 4.62675 22.2598 5.13546 22.2598 5.66589V15.6659C22.2598 16.1963 22.0491 16.705 21.674 17.0801C21.2989 17.4552 20.7902 17.6659 20.2598 17.6659H19.2598" stroke="black" stroke-linecap="round" stroke-linejoin="round"/>
<path d="M12.2598 15.6659L17.2598 21.6659H7.25977L12.2598 15.6659Z" stroke="black" stroke-linecap="round" stroke-linejoin="round"/>
</svg>
