<svg width="345" height="283" viewBox="0 0 345 283" fill="none" xmlns="http://www.w3.org/2000/svg">
<rect width="345" height="283" fill="#282731"/>
<rect width="360" height="640" transform="translate(-8 -164)" fill="white"/>
<g filter="url(#filter0_d)">
<rect x="6" y="2" width="320" height="210" rx="10" fill="white"/>
<rect x="6.5" y="2.5" width="319" height="209" rx="9.5" stroke="#E3E3E3"/>
</g>
<circle cx="39" cy="35" r="15" fill="#E4E4E4"/>
<rect x="63" y="21" width="106" height="6" rx="3" fill="#E4E4E4"/>
<rect x="63" y="38" width="40" height="6" rx="3" fill="#E4E4E4"/>
<line x1="8" y1="151.5" x2="326" y2="151.5" stroke="#E4E4E4"/>
<path d="M72.3757 79C75.478 79 77.228 77.071 77.228 73.8892C77.228 70.7273 75.478 68.8182 72.5149 68.8182H69.2337V79H72.3757ZM70.4666 77.9062V69.9119H72.4354C74.8218 69.9119 76.0348 71.4233 76.0348 73.8892C76.0348 76.375 74.8218 77.9062 72.2962 77.9062H70.4666ZM82.2394 79.1591C84.3076 79.1591 85.6996 77.5881 85.6996 75.2216C85.6996 72.8352 84.3076 71.2642 82.2394 71.2642C80.1712 71.2642 78.7791 72.8352 78.7791 75.2216C78.7791 77.5881 80.1712 79.1591 82.2394 79.1591ZM82.2394 78.1051C80.6683 78.1051 79.9524 76.7528 79.9524 75.2216C79.9524 73.6903 80.6683 72.3182 82.2394 72.3182C83.8104 72.3182 84.5263 73.6903 84.5263 75.2216C84.5263 76.7528 83.8104 78.1051 82.2394 78.1051ZM88.6639 74.4062C88.6639 73.0739 89.4892 72.3182 90.6128 72.3182C91.7015 72.3182 92.3628 73.0291 92.3628 74.2273V79H93.5361V74.1477C93.5361 72.1989 92.497 71.2642 90.9508 71.2642C89.7974 71.2642 89.0815 71.7812 88.7236 72.5568H88.6241V71.3636H87.4906V79H88.6639V74.4062ZM96.7142 68.8182H95.6005V69.733C95.6005 70.4688 95.2426 71.1051 94.825 71.7017L95.4613 72.2188C96.2568 71.5824 96.7142 70.5284 96.7142 69.7131V68.8182ZM101.79 71.3636H100.159V69.5341H98.9862V71.3636H97.8328V72.358H98.9862V77.1307C98.9862 78.4631 100.06 79.0994 101.054 79.0994C101.492 79.0994 101.77 79.0199 101.929 78.9602L101.691 77.9062C101.591 77.9261 101.432 77.9659 101.174 77.9659C100.657 77.9659 100.159 77.8068 100.159 76.8125V72.358H101.79V71.3636ZM109.223 79H110.376L112.047 73.1335H112.166L113.836 79H114.99L117.316 71.3636H116.083L114.433 77.1903H114.353L112.743 71.3636H111.49L109.859 77.2102H109.779L108.129 71.3636H106.896L109.223 79ZM121.71 79.1591C123.778 79.1591 125.17 77.5881 125.17 75.2216C125.17 72.8352 123.778 71.2642 121.71 71.2642C119.642 71.2642 118.25 72.8352 118.25 75.2216C118.25 77.5881 119.642 79.1591 121.71 79.1591ZM121.71 78.1051C120.139 78.1051 119.423 76.7528 119.423 75.2216C119.423 73.6903 120.139 72.3182 121.71 72.3182C123.281 72.3182 123.997 73.6903 123.997 75.2216C123.997 76.7528 123.281 78.1051 121.71 78.1051ZM126.961 79H128.135V74.1676C128.135 73.1335 128.95 72.3778 130.064 72.3778C130.377 72.3778 130.7 72.4375 130.779 72.4574V71.2642C130.645 71.2543 130.337 71.2443 130.163 71.2443C129.248 71.2443 128.453 71.7614 128.174 72.517H128.095V71.3636H126.961V79ZM132.17 79H133.344V74.1676C133.344 73.1335 134.159 72.3778 135.273 72.3778C135.586 72.3778 135.909 72.4375 135.988 72.4574V71.2642C135.854 71.2543 135.546 71.2443 135.372 71.2443C134.457 71.2443 133.662 71.7614 133.383 72.517H133.304V71.3636H132.17V79ZM138.367 81.8636C139.426 81.8636 140.172 81.3018 140.615 80.1136L143.866 71.3835L142.583 71.3636L140.475 77.4489H140.396L138.288 71.3636H137.015L139.839 79.0398L139.62 79.6364C139.193 80.7997 138.666 80.9091 137.811 80.6903L137.512 81.7244C137.632 81.7841 137.97 81.8636 138.367 81.8636ZM146.69 77.608H145.417L145.357 78.1648C145.213 79.5121 144.93 80.8544 144.801 81.4858H145.696C145.934 80.8097 146.441 79.2784 146.61 78.1449L146.69 77.608ZM154.531 79H155.685L157.355 73.1335H157.474L159.145 79H160.298L162.625 71.3636H161.392L159.741 77.1903H159.662L158.051 71.3636H156.798L155.168 77.2102H155.088L153.438 71.3636H152.205L154.531 79ZM165.349 74.4062C165.349 73.0739 166.2 72.3182 167.358 72.3182C168.462 72.3182 169.128 73.0142 169.128 74.2273V79H170.301V74.1477C170.301 72.1839 169.257 71.2642 167.696 71.2642C166.493 71.2642 165.807 71.7663 165.449 72.5568H165.349V68.8182H164.176V79H165.349V74.4062ZM175.649 79.1591C177.2 79.1591 178.334 78.3835 178.692 77.2301L177.558 76.9119C177.26 77.7074 176.569 78.1051 175.649 78.1051C174.272 78.1051 173.323 77.2152 173.268 75.5795H178.811V75.0824C178.811 72.2386 177.121 71.2642 175.53 71.2642C173.462 71.2642 172.09 72.8949 172.09 75.2415C172.09 77.5881 173.442 79.1591 175.649 79.1591ZM173.268 74.5653C173.348 73.3771 174.188 72.3182 175.53 72.3182C176.803 72.3182 177.618 73.2727 177.618 74.5653H173.268ZM181.769 74.4062C181.769 73.0739 182.595 72.3182 183.718 72.3182C184.807 72.3182 185.468 73.0291 185.468 74.2273V79H186.642V74.1477C186.642 72.1989 185.602 71.2642 184.056 71.2642C182.903 71.2642 182.187 71.7812 181.829 72.5568H181.73V71.3636H180.596V79H181.769V74.4062ZM196.044 71.3636H194.413V69.5341H193.24V71.3636H192.087V72.358H193.24V77.1307C193.24 78.4631 194.314 79.0994 195.308 79.0994C195.746 79.0994 196.024 79.0199 196.183 78.9602L195.945 77.9062C195.845 77.9261 195.686 77.9659 195.428 77.9659C194.911 77.9659 194.413 77.8068 194.413 76.8125V72.358H196.044V71.3636ZM199.146 74.4062C199.146 73.0739 199.996 72.3182 201.155 72.3182C202.259 72.3182 202.925 73.0142 202.925 74.2273V79H204.098V74.1477C204.098 72.1839 203.054 71.2642 201.493 71.2642C200.29 71.2642 199.604 71.7663 199.246 72.5568H199.146V68.8182H197.973V79H199.146V74.4062ZM206.245 79H207.418V71.3636H206.245V79ZM206.841 70.0909C207.298 70.0909 207.676 69.733 207.676 69.2955C207.676 68.858 207.298 68.5 206.841 68.5C206.384 68.5 206.006 68.858 206.006 69.2955C206.006 69.733 206.384 70.0909 206.841 70.0909ZM214.976 73.0739C214.608 71.9901 213.783 71.2642 212.271 71.2642C210.661 71.2642 209.467 72.179 209.467 73.4716C209.467 74.5256 210.094 75.2315 211.496 75.5597L212.768 75.858C213.539 76.0369 213.902 76.4048 213.902 76.9318C213.902 77.5881 213.206 78.125 212.112 78.125C211.153 78.125 210.551 77.7124 210.342 76.892L209.229 77.1705C209.502 78.468 210.571 79.1591 212.132 79.1591C213.907 79.1591 215.115 78.1896 215.115 76.8722C215.115 75.8082 214.449 75.1371 213.087 74.804L211.953 74.5256C211.048 74.3018 210.641 73.9986 210.641 73.4119C210.641 72.7557 211.337 72.2784 212.271 72.2784C213.295 72.2784 213.718 72.8452 213.922 73.3722L214.976 73.0739ZM223.921 79.1591C225.611 79.1591 226.725 78.125 226.924 76.7727H225.751C225.532 77.608 224.836 78.1051 223.921 78.1051C222.529 78.1051 221.634 76.9517 221.634 75.1818C221.634 73.4517 222.549 72.3182 223.921 72.3182C224.955 72.3182 225.572 72.9545 225.751 73.6506H226.924C226.725 72.2188 225.512 71.2642 223.901 71.2642C221.833 71.2642 220.461 72.8949 220.461 75.2216C220.461 77.5085 221.773 79.1591 223.921 79.1591ZM228.639 79H229.812V74.1676C229.812 73.1335 230.628 72.3778 231.741 72.3778C232.055 72.3778 232.378 72.4375 232.457 72.4574V71.2642C232.323 71.2543 232.015 71.2443 231.841 71.2443C230.926 71.2443 230.131 71.7614 229.852 72.517H229.773V71.3636H228.639V79ZM236.095 79.179C237.428 79.179 238.124 78.4631 238.362 77.9659H238.422V79H239.595V73.9688C239.595 71.5426 237.746 71.2642 236.771 71.2642C235.618 71.2642 234.305 71.6619 233.709 73.054L234.822 73.4517C235.081 72.8949 235.692 72.2983 236.811 72.2983C237.89 72.2983 238.422 72.87 238.422 73.8494V73.8892C238.422 74.456 237.845 74.4062 236.453 74.5852C235.036 74.7692 233.49 75.0824 233.49 76.8324C233.49 78.3239 234.643 79.179 236.095 79.179ZM236.274 78.125C235.34 78.125 234.663 77.7074 234.663 76.892C234.663 75.9972 235.479 75.7188 236.393 75.5994C236.891 75.5398 238.223 75.4006 238.422 75.1619V76.2358C238.422 77.1903 237.666 78.125 236.274 78.125ZM247.146 73.0739C246.778 71.9901 245.953 71.2642 244.441 71.2642C242.83 71.2642 241.637 72.179 241.637 73.4716C241.637 74.5256 242.264 75.2315 243.666 75.5597L244.938 75.858C245.709 76.0369 246.072 76.4048 246.072 76.9318C246.072 77.5881 245.376 78.125 244.282 78.125C243.323 78.125 242.721 77.7124 242.512 76.892L241.399 77.1705C241.672 78.468 242.741 79.1591 244.302 79.1591C246.077 79.1591 247.285 78.1896 247.285 76.8722C247.285 75.8082 246.619 75.1371 245.257 74.804L244.123 74.5256C243.218 74.3018 242.811 73.9986 242.811 73.4119C242.811 72.7557 243.507 72.2784 244.441 72.2784C245.465 72.2784 245.888 72.8452 246.092 73.3722L247.146 73.0739ZM250.224 74.4062C250.224 73.0739 251.075 72.3182 252.233 72.3182C253.337 72.3182 254.003 73.0142 254.003 74.2273V79H255.176V74.1477C255.176 72.1839 254.132 71.2642 252.571 71.2642C251.368 71.2642 250.682 71.7663 250.324 72.5568H250.224V68.8182H249.051V79H250.224V74.4062ZM260.524 79.1591C262.075 79.1591 263.209 78.3835 263.567 77.2301L262.433 76.9119C262.135 77.7074 261.444 78.1051 260.524 78.1051C259.147 78.1051 258.198 77.2152 258.143 75.5795H263.686V75.0824C263.686 72.2386 261.996 71.2642 260.405 71.2642C258.337 71.2642 256.965 72.8949 256.965 75.2415C256.965 77.5881 258.317 79.1591 260.524 79.1591ZM258.143 74.5653C258.223 73.3771 259.063 72.3182 260.405 72.3182C261.678 72.3182 262.493 73.2727 262.493 74.5653H258.143ZM270.88 73.0739C270.512 71.9901 269.687 71.2642 268.176 71.2642C266.565 71.2642 265.372 72.179 265.372 73.4716C265.372 74.5256 265.998 75.2315 267.4 75.5597L268.673 75.858C269.443 76.0369 269.806 76.4048 269.806 76.9318C269.806 77.5881 269.11 78.125 268.017 78.125C267.057 78.125 266.455 77.7124 266.247 76.892L265.133 77.1705C265.406 78.468 266.475 79.1591 268.036 79.1591C269.811 79.1591 271.019 78.1896 271.019 76.8722C271.019 75.8082 270.353 75.1371 268.991 74.804L267.857 74.5256C266.953 74.3018 266.545 73.9986 266.545 73.4119C266.545 72.7557 267.241 72.2784 268.176 72.2784C269.2 72.2784 269.622 72.8452 269.826 73.3722L270.88 73.0739ZM274.536 77.608H273.263L273.203 78.1648C273.059 79.5121 272.776 80.8544 272.646 81.4858H273.541C273.78 80.8097 274.287 79.2784 274.456 78.1449L274.536 77.608ZM71.3218 96.179C72.6541 96.179 73.3502 95.4631 73.5888 94.9659H73.6485V96H74.8218V90.9688C74.8218 88.5426 72.9723 88.2642 71.9979 88.2642C70.8445 88.2642 69.532 88.6619 68.9354 90.054L70.049 90.4517C70.3076 89.8949 70.9191 89.2983 72.0377 89.2983C73.1165 89.2983 73.6485 89.87 73.6485 90.8494V90.8892C73.6485 91.456 73.0718 91.4062 71.6797 91.5852C70.2628 91.7692 68.7166 92.0824 68.7166 93.8324C68.7166 95.3239 69.8701 96.179 71.3218 96.179ZM71.5007 95.125C70.5661 95.125 69.8899 94.7074 69.8899 93.892C69.8899 92.9972 70.7053 92.7188 71.6201 92.5994C72.1172 92.5398 73.4496 92.4006 73.6485 92.1619V93.2358C73.6485 94.1903 72.8928 95.125 71.5007 95.125ZM78.1366 85.8182H76.9633V96H78.1366V85.8182ZM81.4588 85.8182H80.2855V96H81.4588V85.8182ZM90.8663 88.3636H89.2356V86.5341H88.0623V88.3636H86.9089V89.358H88.0623V94.1307C88.0623 95.4631 89.1362 96.0994 90.1305 96.0994C90.568 96.0994 90.8464 96.0199 91.0055 95.9602L90.7669 94.9062C90.6675 94.9261 90.5084 94.9659 90.2498 94.9659C89.7328 94.9659 89.2356 94.8068 89.2356 93.8125V89.358H90.8663V88.3636ZM93.9686 91.4062C93.9686 90.0739 94.8187 89.3182 95.9771 89.3182C97.0808 89.3182 97.747 90.0142 97.747 91.2273V96H98.9203V91.1477C98.9203 89.1839 97.8763 88.2642 96.3152 88.2642C95.1121 88.2642 94.426 88.7663 94.068 89.5568H93.9686V85.8182H92.7953V96H93.9686V91.4062ZM104.268 96.1591C105.82 96.1591 106.953 95.3835 107.311 94.2301L106.178 93.9119C105.879 94.7074 105.188 95.1051 104.268 95.1051C102.891 95.1051 101.942 94.2152 101.887 92.5795H107.43V92.0824C107.43 89.2386 105.74 88.2642 104.149 88.2642C102.081 88.2642 100.709 89.8949 100.709 92.2415C100.709 94.5881 102.061 96.1591 104.268 96.1591ZM101.887 91.5653C101.967 90.3771 102.807 89.3182 104.149 89.3182C105.422 89.3182 106.237 90.2727 106.237 91.5653H101.887ZM114.326 91.4062C114.326 90.0739 115.176 89.3182 116.335 89.3182C117.438 89.3182 118.104 90.0142 118.104 91.2273V96H119.278V91.1477C119.278 89.1839 118.234 88.2642 116.673 88.2642C115.469 88.2642 114.783 88.7663 114.425 89.5568H114.326V85.8182H113.153V96H114.326V91.4062ZM121.906 98.8636C122.965 98.8636 123.711 98.3018 124.154 97.1136L127.405 88.3835L126.122 88.3636L124.014 94.4489H123.935L121.827 88.3636H120.554L123.378 96.0398L123.159 96.6364C122.732 97.7997 122.205 97.9091 121.35 97.6903L121.051 98.7244C121.171 98.7841 121.509 98.8636 121.906 98.8636ZM128.957 98.8636H130.131V94.8267H130.23C130.489 95.2443 130.986 96.1591 132.457 96.1591C134.366 96.1591 135.699 94.6278 135.699 92.2017C135.699 89.7955 134.366 88.2642 132.438 88.2642C130.946 88.2642 130.489 89.179 130.23 89.5767H130.091V88.3636H128.957V98.8636ZM130.111 92.1818C130.111 90.4716 130.866 89.3182 132.298 89.3182C133.79 89.3182 134.526 90.571 134.526 92.1818C134.526 93.8125 133.77 95.1051 132.298 95.1051C130.886 95.1051 130.111 93.9119 130.111 92.1818ZM140.591 96.1591C142.659 96.1591 144.051 94.5881 144.051 92.2216C144.051 89.8352 142.659 88.2642 140.591 88.2642C138.523 88.2642 137.131 89.8352 137.131 92.2216C137.131 94.5881 138.523 96.1591 140.591 96.1591ZM140.591 95.1051C139.02 95.1051 138.304 93.7528 138.304 92.2216C138.304 90.6903 139.02 89.3182 140.591 89.3182C142.162 89.3182 142.878 90.6903 142.878 92.2216C142.878 93.7528 142.162 95.1051 140.591 95.1051ZM148.944 96.1591C150.635 96.1591 151.748 95.125 151.947 93.7727H150.774C150.555 94.608 149.859 95.1051 148.944 95.1051C147.552 95.1051 146.658 93.9517 146.658 92.1818C146.658 90.4517 147.572 89.3182 148.944 89.3182C149.979 89.3182 150.595 89.9545 150.774 90.6506H151.947C151.748 89.2188 150.535 88.2642 148.925 88.2642C146.856 88.2642 145.484 89.8949 145.484 92.2216C145.484 94.5085 146.797 96.1591 148.944 96.1591ZM153.662 96H154.836V91.1676C154.836 90.1335 155.651 89.3778 156.765 89.3778C157.078 89.3778 157.401 89.4375 157.481 89.4574V88.2642C157.346 88.2543 157.038 88.2443 156.864 88.2443C155.949 88.2443 155.154 88.7614 154.876 89.517H154.796V88.3636H153.662V96ZM158.871 96H160.045V88.3636H158.871V96ZM159.468 87.0909C159.925 87.0909 160.303 86.733 160.303 86.2955C160.303 85.858 159.925 85.5 159.468 85.5C159.011 85.5 158.633 85.858 158.633 86.2955C158.633 86.733 159.011 87.0909 159.468 87.0909ZM165.515 88.3636H163.884V86.5341H162.711V88.3636H161.557V89.358H162.711V94.1307C162.711 95.4631 163.785 96.0994 164.779 96.0994C165.216 96.0994 165.495 96.0199 165.654 95.9602L165.415 94.9062C165.316 94.9261 165.157 94.9659 164.898 94.9659C164.381 94.9659 163.884 94.8068 163.884 93.8125V89.358H165.515V88.3636ZM167.28 96H168.453V88.3636H167.28V96ZM167.876 87.0909C168.334 87.0909 168.711 86.733 168.711 86.2955C168.711 85.858 168.334 85.5 167.876 85.5C167.419 85.5 167.041 85.858 167.041 86.2955C167.041 86.733 167.419 87.0909 167.876 87.0909ZM173.804 96.1591C175.355 96.1591 176.488 95.3835 176.846 94.2301L175.713 93.9119C175.414 94.7074 174.723 95.1051 173.804 95.1051C172.427 95.1051 171.477 94.2152 171.422 92.5795H176.966V92.0824C176.966 89.2386 175.275 88.2642 173.684 88.2642C171.616 88.2642 170.244 89.8949 170.244 92.2415C170.244 94.5881 171.596 96.1591 173.804 96.1591ZM171.422 91.5653C171.502 90.3771 172.342 89.3182 173.684 89.3182C174.957 89.3182 175.772 90.2727 175.772 91.5653H171.422ZM184.159 90.0739C183.792 88.9901 182.966 88.2642 181.455 88.2642C179.844 88.2642 178.651 89.179 178.651 90.4716C178.651 91.5256 179.277 92.2315 180.679 92.5597L181.952 92.858C182.723 93.0369 183.086 93.4048 183.086 93.9318C183.086 94.5881 182.39 95.125 181.296 95.125C180.336 95.125 179.735 94.7124 179.526 93.892L178.412 94.1705C178.686 95.468 179.755 96.1591 181.316 96.1591C183.091 96.1591 184.299 95.1896 184.299 93.8722C184.299 92.8082 183.632 92.1371 182.27 91.804L181.137 91.5256C180.232 91.3018 179.824 90.9986 179.824 90.4119C179.824 89.7557 180.52 89.2784 181.455 89.2784C182.479 89.2784 182.902 89.8452 183.105 90.3722L184.159 90.0739ZM191.732 96H192.886L194.556 90.1335H194.676L196.346 96H197.499L199.826 88.3636H198.593L196.943 94.1903H196.863L195.252 88.3636H193.999L192.369 94.2102H192.289L190.639 88.3636H189.406L191.732 96ZM202.551 91.4062C202.551 90.0739 203.401 89.3182 204.559 89.3182C205.663 89.3182 206.329 90.0142 206.329 91.2273V96H207.502V91.1477C207.502 89.1839 206.458 88.2642 204.897 88.2642C203.694 88.2642 203.008 88.7663 202.65 89.5568H202.551V85.8182H201.377V96H202.551V91.4062ZM212.751 96.1591C214.819 96.1591 216.211 94.5881 216.211 92.2216C216.211 89.8352 214.819 88.2642 212.751 88.2642C210.683 88.2642 209.291 89.8352 209.291 92.2216C209.291 94.5881 210.683 96.1591 212.751 96.1591ZM212.751 95.1051C211.18 95.1051 210.464 93.7528 210.464 92.2216C210.464 90.6903 211.18 89.3182 212.751 89.3182C214.322 89.3182 215.038 90.6903 215.038 92.2216C215.038 93.7528 214.322 95.1051 212.751 95.1051ZM224.187 96.179C225.519 96.179 226.215 95.4631 226.454 94.9659H226.514V96H227.687V90.9688C227.687 88.5426 225.838 88.2642 224.863 88.2642C223.71 88.2642 222.397 88.6619 221.801 90.054L222.914 90.4517C223.173 89.8949 223.784 89.2983 224.903 89.2983C225.982 89.2983 226.514 89.87 226.514 90.8494V90.8892C226.514 91.456 225.937 91.4062 224.545 91.5852C223.128 91.7692 221.582 92.0824 221.582 93.8324C221.582 95.3239 222.735 96.179 224.187 96.179ZM224.366 95.125C223.431 95.125 222.755 94.7074 222.755 93.892C222.755 92.9972 223.571 92.7188 224.485 92.5994C224.982 92.5398 226.315 92.4006 226.514 92.1619V93.2358C226.514 94.1903 225.758 95.125 224.366 95.125ZM229.829 96H231.002V91.1676C231.002 90.1335 231.817 89.3778 232.931 89.3778C233.244 89.3778 233.567 89.4375 233.647 89.4574V88.2642C233.512 88.2543 233.204 88.2443 233.03 88.2443C232.115 88.2443 231.32 88.7614 231.042 89.517H230.962V88.3636H229.829V96ZM238.007 96.1591C239.558 96.1591 240.691 95.3835 241.049 94.2301L239.916 93.9119C239.618 94.7074 238.927 95.1051 238.007 95.1051C236.63 95.1051 235.68 94.2152 235.625 92.5795H241.169V92.0824C241.169 89.2386 239.478 88.2642 237.887 88.2642C235.819 88.2642 234.447 89.8949 234.447 92.2415C234.447 94.5881 235.799 96.1591 238.007 96.1591ZM235.625 91.5653C235.705 90.3771 236.545 89.3182 237.887 89.3182C239.16 89.3182 239.976 90.2727 239.976 91.5653H235.625ZM74.4837 107.074C74.1158 105.99 73.2905 105.264 71.7791 105.264C70.1683 105.264 68.9752 106.179 68.9752 107.472C68.9752 108.526 69.6016 109.232 71.0036 109.56L72.2763 109.858C73.0469 110.037 73.4098 110.405 73.4098 110.932C73.4098 111.588 72.7138 112.125 71.6201 112.125C70.6605 112.125 70.059 111.712 69.8502 110.892L68.7365 111.17C69.01 112.468 70.0789 113.159 71.6399 113.159C73.4148 113.159 74.6229 112.19 74.6229 110.872C74.6229 109.808 73.9567 109.137 72.5945 108.804L71.461 108.526C70.5561 108.302 70.1485 107.999 70.1485 107.412C70.1485 106.756 70.8445 106.278 71.7791 106.278C72.8033 106.278 73.2259 106.845 73.4297 107.372L74.4837 107.074ZM77.5623 108.406C77.5623 107.074 78.4125 106.318 79.5709 106.318C80.6746 106.318 81.3408 107.014 81.3408 108.227V113H82.514V108.148C82.514 106.184 81.47 105.264 79.9089 105.264C78.7058 105.264 78.0197 105.766 77.6618 106.557H77.5623V102.818H76.389V113H77.5623V108.406ZM87.7628 113.159C89.831 113.159 91.223 111.588 91.223 109.222C91.223 106.835 89.831 105.264 87.7628 105.264C85.6946 105.264 84.3026 106.835 84.3026 109.222C84.3026 111.588 85.6946 113.159 87.7628 113.159ZM87.7628 112.105C86.1918 112.105 85.4759 110.753 85.4759 109.222C85.4759 107.69 86.1918 106.318 87.7628 106.318C89.3338 106.318 90.0497 107.69 90.0497 109.222C90.0497 110.753 89.3338 112.105 87.7628 112.105ZM97.8265 109.878C97.8265 111.31 96.7328 111.966 95.8578 111.966C94.8834 111.966 94.1873 111.25 94.1873 110.136V105.364H93.014V110.216C93.014 112.165 94.0481 113.099 95.48 113.099C96.6334 113.099 97.389 112.483 97.747 111.707H97.8265V113H98.9998V105.364H97.8265V109.878ZM104.47 105.364H102.839V103.534H101.666V105.364H100.512V106.358H101.666V111.131C101.666 112.463 102.74 113.099 103.734 113.099C104.172 113.099 104.45 113.02 104.609 112.96L104.37 111.906C104.271 111.926 104.112 111.966 103.853 111.966C103.336 111.966 102.839 111.807 102.839 110.812V106.358H104.47V105.364ZM106.235 113H107.408V105.364H106.235V113ZM106.831 104.091C107.289 104.091 107.667 103.733 107.667 103.295C107.667 102.858 107.289 102.5 106.831 102.5C106.374 102.5 105.996 102.858 105.996 103.295C105.996 103.733 106.374 104.091 106.831 104.091ZM110.73 108.406C110.73 107.074 111.556 106.318 112.679 106.318C113.768 106.318 114.429 107.029 114.429 108.227V113H115.602V108.148C115.602 106.199 114.563 105.264 113.017 105.264C111.864 105.264 111.148 105.781 110.79 106.557H110.691V105.364H109.557V113H110.73V108.406ZM120.829 116.023C122.658 116.023 124.13 115.188 124.13 113.219V105.364H122.996V106.577H122.877C122.619 106.179 122.141 105.264 120.65 105.264C118.721 105.264 117.389 106.795 117.389 109.142C117.389 111.528 118.781 112.881 120.63 112.881C122.121 112.881 122.599 112.006 122.857 111.588H122.957V113.139C122.957 114.412 122.062 114.989 120.829 114.989C119.442 114.989 118.955 114.258 118.641 113.835L117.707 114.491C118.184 115.292 119.124 116.023 120.829 116.023ZM120.789 111.827C119.317 111.827 118.562 110.713 118.562 109.122C118.562 107.571 119.298 106.318 120.789 106.318C122.221 106.318 122.977 107.472 122.977 109.122C122.977 110.812 122.201 111.827 120.789 111.827ZM131.945 113H133.099L134.769 107.134H134.889L136.559 113H137.712L140.039 105.364H138.806L137.156 111.19H137.076L135.465 105.364H134.212L132.582 111.21H132.502L130.852 105.364H129.619L131.945 113ZM141.59 113H142.764V105.364H141.59V113ZM142.187 104.091C142.644 104.091 143.022 103.733 143.022 103.295C143.022 102.858 142.644 102.5 142.187 102.5C141.729 102.5 141.352 102.858 141.352 103.295C141.352 103.733 141.729 104.091 142.187 104.091ZM146.086 102.818H144.912V113H146.086V102.818ZM149.408 102.818H148.235V113H149.408V102.818ZM155.654 113H156.787V111.827H156.926C157.185 112.244 157.682 113.159 159.154 113.159C161.063 113.159 162.395 111.628 162.395 109.202C162.395 106.795 161.063 105.264 159.134 105.264C157.642 105.264 157.185 106.179 156.926 106.577H156.827V102.818H155.654V113ZM156.807 109.182C156.807 107.472 157.563 106.318 158.995 106.318C160.486 106.318 161.222 107.571 161.222 109.182C161.222 110.812 160.466 112.105 158.995 112.105C157.583 112.105 156.807 110.912 156.807 109.182ZM169.002 109.878C169.002 111.31 167.909 111.966 167.034 111.966C166.059 111.966 165.363 111.25 165.363 110.136V105.364H164.19V110.216C164.19 112.165 165.224 113.099 166.656 113.099C167.809 113.099 168.565 112.483 168.923 111.707H169.002V113H170.176V105.364H169.002V109.878ZM173.08 115.864C174.139 115.864 174.885 115.302 175.327 114.114L178.579 105.384L177.296 105.364L175.188 111.449H175.109L173.001 105.364H171.728L174.552 113.04L174.333 113.636C173.906 114.8 173.379 114.909 172.523 114.69L172.225 115.724C172.344 115.784 172.683 115.864 173.08 115.864ZM186.316 113.179C187.648 113.179 188.344 112.463 188.583 111.966H188.643V113H189.816V107.969C189.816 105.543 187.966 105.264 186.992 105.264C185.839 105.264 184.526 105.662 183.93 107.054L185.043 107.452C185.302 106.895 185.913 106.298 187.032 106.298C188.111 106.298 188.643 106.87 188.643 107.849V107.889C188.643 108.456 188.066 108.406 186.674 108.585C185.257 108.769 183.711 109.082 183.711 110.832C183.711 112.324 184.864 113.179 186.316 113.179ZM186.495 112.125C185.56 112.125 184.884 111.707 184.884 110.892C184.884 109.997 185.699 109.719 186.614 109.599C187.111 109.54 188.444 109.401 188.643 109.162V110.236C188.643 111.19 187.887 112.125 186.495 112.125ZM193.131 108.406C193.131 107.074 193.956 106.318 195.08 106.318C196.168 106.318 196.83 107.029 196.83 108.227V113H198.003V108.148C198.003 106.199 196.964 105.264 195.418 105.264C194.264 105.264 193.548 105.781 193.19 106.557H193.091V105.364H191.957V113H193.131V108.406ZM203.03 113.159C204.502 113.159 204.999 112.244 205.258 111.827H205.397V113H206.53V102.818H205.357V106.577H205.258C204.999 106.179 204.542 105.264 203.05 105.264C201.121 105.264 199.789 106.795 199.789 109.202C199.789 111.628 201.121 113.159 203.03 113.159ZM203.189 112.105C201.718 112.105 200.962 110.812 200.962 109.182C200.962 107.571 201.698 106.318 203.189 106.318C204.621 106.318 205.377 107.472 205.377 109.182C205.377 110.912 204.601 112.105 203.189 112.105ZM218.189 107.074C217.821 105.99 216.996 105.264 215.484 105.264C213.873 105.264 212.68 106.179 212.68 107.472C212.68 108.526 213.307 109.232 214.709 109.56L215.981 109.858C216.752 110.037 217.115 110.405 217.115 110.932C217.115 111.588 216.419 112.125 215.325 112.125C214.366 112.125 213.764 111.712 213.555 110.892L212.442 111.17C212.715 112.468 213.784 113.159 215.345 113.159C217.12 113.159 218.328 112.19 218.328 110.872C218.328 109.808 217.662 109.137 216.3 108.804L215.166 108.526C214.261 108.302 213.854 107.999 213.854 107.412C213.854 106.756 214.55 106.278 215.484 106.278C216.508 106.278 216.931 106.845 217.135 107.372L218.189 107.074ZM223.296 113.159C224.847 113.159 225.98 112.384 226.338 111.23L225.205 110.912C224.907 111.707 224.216 112.105 223.296 112.105C221.919 112.105 220.969 111.215 220.914 109.58H226.458V109.082C226.458 106.239 224.767 105.264 223.177 105.264C221.108 105.264 219.736 106.895 219.736 109.241C219.736 111.588 221.088 113.159 223.296 113.159ZM220.914 108.565C220.994 107.377 221.834 106.318 223.177 106.318C224.449 106.318 225.265 107.273 225.265 108.565H220.914ZM229.416 102.818H228.243V113H229.416V102.818ZM232.738 102.818H231.565V113H232.738V102.818ZM242.146 105.364H240.515V103.534H239.342V105.364H238.188V106.358H239.342V111.131C239.342 112.463 240.416 113.099 241.41 113.099C241.847 113.099 242.126 113.02 242.285 112.96L242.046 111.906C241.947 111.926 241.788 111.966 241.529 111.966C241.012 111.966 240.515 111.807 240.515 110.812V106.358H242.146V105.364ZM245.248 108.406C245.248 107.074 246.098 106.318 247.256 106.318C248.36 106.318 249.026 107.014 249.026 108.227V113H250.2V108.148C250.2 106.184 249.156 105.264 247.594 105.264C246.391 105.264 245.705 105.766 245.347 106.557H245.248V102.818H244.075V113H245.248V108.406ZM255.548 113.159C257.099 113.159 258.232 112.384 258.59 111.23L257.457 110.912C257.159 111.707 256.468 112.105 255.548 112.105C254.171 112.105 253.221 111.215 253.166 109.58H258.71V109.082C258.71 106.239 257.019 105.264 255.428 105.264C253.36 105.264 251.988 106.895 251.988 109.241C251.988 111.588 253.34 113.159 255.548 113.159ZM253.166 108.565C253.246 107.377 254.086 106.318 255.428 106.318C256.701 106.318 257.517 107.273 257.517 108.565H253.166ZM74.4837 124.074C74.1158 122.99 73.2905 122.264 71.7791 122.264C70.1683 122.264 68.9752 123.179 68.9752 124.472C68.9752 125.526 69.6016 126.232 71.0036 126.56L72.2763 126.858C73.0469 127.037 73.4098 127.405 73.4098 127.932C73.4098 128.588 72.7138 129.125 71.6201 129.125C70.6605 129.125 70.059 128.712 69.8502 127.892L68.7365 128.17C69.01 129.468 70.0789 130.159 71.6399 130.159C73.4148 130.159 74.6229 129.19 74.6229 127.872C74.6229 126.808 73.9567 126.137 72.5945 125.804L71.461 125.526C70.5561 125.302 70.1485 124.999 70.1485 124.412C70.1485 123.756 70.8445 123.278 71.7791 123.278C72.8033 123.278 73.2259 123.845 73.4297 124.372L74.4837 124.074ZM79.7101 122.364H78.0794V120.534H76.9061V122.364H75.7527V123.358H76.9061V128.131C76.9061 129.463 77.98 130.099 78.9743 130.099C79.4118 130.099 79.6902 130.02 79.8493 129.96L79.6106 128.906C79.5112 128.926 79.3521 128.966 79.0936 128.966C78.5765 128.966 78.0794 128.807 78.0794 127.812V123.358H79.7101V122.364ZM84.4952 130.159C86.5634 130.159 87.9555 128.588 87.9555 126.222C87.9555 123.835 86.5634 122.264 84.4952 122.264C82.427 122.264 81.035 123.835 81.035 126.222C81.035 128.588 82.427 130.159 84.4952 130.159ZM84.4952 129.105C82.9242 129.105 82.2083 127.753 82.2083 126.222C82.2083 124.69 82.9242 123.318 84.4952 123.318C86.0663 123.318 86.7822 124.69 86.7822 126.222C86.7822 127.753 86.0663 129.105 84.4952 129.105ZM92.8487 130.159C94.5391 130.159 95.6527 129.125 95.8516 127.773H94.6783C94.4595 128.608 93.7635 129.105 92.8487 129.105C91.4567 129.105 90.5618 127.952 90.5618 126.182C90.5618 124.452 91.4766 123.318 92.8487 123.318C93.8828 123.318 94.4993 123.955 94.6783 124.651H95.8516C95.6527 123.219 94.4397 122.264 92.8289 122.264C90.7607 122.264 89.3885 123.895 89.3885 126.222C89.3885 128.509 90.701 130.159 92.8487 130.159ZM97.5668 130H98.7401V127.141L99.5604 126.381L102.419 130H103.911L100.445 125.625L103.672 122.364H102.22L98.8793 125.764H98.7401V119.818H97.5668V130ZM110.591 124.074C110.223 122.99 109.398 122.264 107.887 122.264C106.276 122.264 105.083 123.179 105.083 124.472C105.083 125.526 105.709 126.232 107.111 126.56L108.384 126.858C109.154 127.037 109.517 127.405 109.517 127.932C109.517 128.588 108.821 129.125 107.727 129.125C106.768 129.125 106.166 128.712 105.958 127.892L104.844 128.17C105.117 129.468 106.186 130.159 107.747 130.159C109.522 130.159 110.73 129.19 110.73 127.872C110.73 126.808 110.064 126.137 108.702 125.804L107.568 125.526C106.664 125.302 106.256 124.999 106.256 124.412C106.256 123.756 106.952 123.278 107.887 123.278C108.911 123.278 109.333 123.845 109.537 124.372L110.591 124.074Z" fill="#282828"/>
<path d="M119.417 131.273H120.232V130.164C122.32 130.02 123.494 128.787 123.494 127.236C123.494 125.327 121.684 124.71 120.63 124.432L120.232 124.322V120.788C121.286 120.892 122.052 121.459 122.161 122.364H123.354C123.305 120.912 122.032 119.808 120.232 119.689V118.545H119.417V119.704C117.712 119.878 116.434 120.962 116.434 122.523C116.434 123.895 117.428 124.71 119.019 125.168L119.417 125.282V129.045C118.373 128.936 117.518 128.399 117.428 127.375H116.156C116.27 128.941 117.463 130.035 119.417 130.164V131.273ZM120.232 129.045V125.516L120.272 125.526C121.346 125.824 122.3 126.202 122.3 127.216C122.3 128.215 121.435 128.911 120.232 129.045ZM119.417 124.104C118.661 123.89 117.627 123.472 117.627 122.463C117.627 121.603 118.323 120.947 119.417 120.803V124.104ZM125.521 119.818V130H126.674V122.264H126.774L129.955 130H131.069L134.251 122.264H134.35V130H135.504V119.818H134.032L130.572 128.27H130.453L126.992 119.818H125.521ZM140.064 130.179C141.396 130.179 142.092 129.463 142.331 128.966H142.391V130H143.564V124.969C143.564 122.543 141.715 122.264 140.74 122.264C139.587 122.264 138.274 122.662 137.678 124.054L138.791 124.452C139.05 123.895 139.661 123.298 140.78 123.298C141.859 123.298 142.391 123.87 142.391 124.849V124.889C142.391 125.456 141.814 125.406 140.422 125.585C139.005 125.769 137.459 126.082 137.459 127.832C137.459 129.324 138.612 130.179 140.064 130.179ZM140.243 129.125C139.308 129.125 138.632 128.707 138.632 127.892C138.632 126.997 139.447 126.719 140.362 126.599C140.859 126.54 142.192 126.401 142.391 126.162V127.236C142.391 128.19 141.635 129.125 140.243 129.125ZM146.879 125.406C146.879 124.074 147.704 123.318 148.828 123.318C149.916 123.318 150.578 124.029 150.578 125.227V130H151.751V125.148C151.751 123.199 150.712 122.264 149.166 122.264C148.012 122.264 147.296 122.781 146.938 123.557H146.839V122.364H145.705V130H146.879V125.406ZM153.895 130H155.068V122.364H153.895V130ZM154.491 121.091C154.949 121.091 155.327 120.733 155.327 120.295C155.327 119.858 154.949 119.5 154.491 119.5C154.034 119.5 153.656 119.858 153.656 120.295C153.656 120.733 154.034 121.091 154.491 121.091Z" fill="#3D96FF"/>
<path d="M81 177V173C81 172.204 80.6839 171.441 80.1213 170.879C79.5587 170.316 78.7956 170 78 170L74 179V190H85.28C85.7623 190.005 86.2304 189.836 86.5979 189.524C86.9654 189.212 87.2077 188.777 87.28 188.3L88.66 179.3C88.7035 179.013 88.6842 178.721 88.6033 178.442C88.5225 178.164 88.3821 177.906 88.1919 177.688C88.0016 177.469 87.7661 177.294 87.5016 177.175C87.2371 177.057 86.9499 176.997 86.66 177H81ZM74 190H71C70.4696 190 69.9609 189.789 69.5858 189.414C69.2107 189.039 69 188.53 69 188V181C69 180.47 69.2107 179.961 69.5858 179.586C69.9609 179.211 70.4696 179 71 179H74" fill="white" fill-opacity="0.22"/>
<path d="M74 190H71C70.4696 190 69.9609 189.789 69.5858 189.414C69.2107 189.039 69 188.53 69 188V181C69 180.47 69.2107 179.961 69.5858 179.586C69.9609 179.211 70.4696 179 71 179H74M81 177V173C81 172.204 80.6839 171.441 80.1213 170.879C79.5587 170.316 78.7956 170 78 170L74 179V190H85.28C85.7623 190.005 86.2304 189.836 86.5979 189.524C86.9654 189.212 87.2077 188.777 87.28 188.3L88.66 179.3C88.7035 179.013 88.6842 178.721 88.6033 178.442C88.5225 178.164 88.3821 177.906 88.1919 177.688C88.0016 177.469 87.7661 177.294 87.5016 177.175C87.2371 177.057 86.9499 176.997 86.66 177H81Z" stroke="black" stroke-linecap="round" stroke-linejoin="round"/>
<path d="M184 179.5C184.003 180.82 183.695 182.122 183.1 183.3C182.394 184.712 181.31 185.899 179.967 186.729C178.625 187.559 177.078 187.999 175.5 188C174.18 188.003 172.878 187.695 171.7 187.1L166 189L167.9 183.3C167.305 182.122 166.997 180.82 167 179.5C167.001 177.922 167.441 176.375 168.271 175.033C169.101 173.69 170.288 172.606 171.7 171.9C172.878 171.305 174.18 170.997 175.5 171H176C178.084 171.115 180.053 171.995 181.529 173.471C183.005 174.947 183.885 176.916 184 179V179.5Z" stroke="#282828" stroke-width="1.5" stroke-linecap="round" stroke-linejoin="round"/>
<path d="M282 172V178H276" stroke="#282828" stroke-width="1.5" stroke-linecap="round" stroke-linejoin="round"/>
<path d="M260 188V182H266" stroke="#282828" stroke-width="1.5" stroke-linecap="round" stroke-linejoin="round"/>
<path d="M262.51 177C263.017 175.567 263.879 174.285 265.015 173.275C266.152 172.265 267.525 171.56 269.008 171.224C270.491 170.889 272.035 170.934 273.495 171.357C274.956 171.779 276.285 172.565 277.36 173.64L282 178M260 182L264.64 186.36C265.715 187.435 267.044 188.221 268.505 188.643C269.965 189.066 271.509 189.111 272.992 188.776C274.475 188.44 275.848 187.735 276.985 186.725C278.121 185.715 278.983 184.433 279.49 183" stroke="#282828" stroke-width="1.5" stroke-linecap="round" stroke-linejoin="round"/>
<path d="M97.4505 181.909C97.4505 184.415 98.1266 186.503 99.3397 188.273H100.374C99.4192 186.96 98.6635 184.276 98.6635 181.909C98.6635 179.543 99.4192 176.858 100.374 175.545H99.3397C98.1266 177.315 97.4505 179.403 97.4505 181.909ZM105.526 187.139C107.499 187.139 108.966 185.901 108.966 184.236C108.966 182.943 108.2 182.004 106.918 181.79V181.71C107.947 181.397 108.588 180.552 108.588 179.403C108.588 177.962 107.45 176.679 105.565 176.679C103.805 176.679 102.344 177.763 102.284 179.364H103.477C103.522 178.349 104.487 177.753 105.545 177.753C106.669 177.753 107.395 178.434 107.395 179.463C107.395 180.537 106.555 181.233 105.347 181.233H104.531V182.327H105.347C106.893 182.327 107.753 183.112 107.753 184.236C107.753 185.315 106.813 186.045 105.506 186.045C104.327 186.045 103.393 185.439 103.318 184.455H102.065C102.14 186.055 103.552 187.139 105.526 187.139ZM110.761 184.912H115.553V187H116.727V184.912H118.119V183.818H116.727V176.818H115.235L110.761 183.898V184.912ZM115.553 183.818H112.093V183.739L115.474 178.389H115.553V183.818ZM122.507 181.909C122.507 179.403 121.831 177.315 120.618 175.545H119.584C120.539 176.858 121.294 179.543 121.294 181.909C121.294 184.276 120.539 186.96 119.584 188.273H120.618C121.831 186.503 122.507 184.415 122.507 181.909Z" fill="black"/>
<path d="M195.839 180.909C195.839 183.415 196.515 185.503 197.728 187.273H198.762C197.808 185.96 197.052 183.276 197.052 180.909C197.052 178.543 197.808 175.858 198.762 174.545H197.728C196.515 176.315 195.839 178.403 195.839 180.909ZM204.053 175.818H202.82L200.275 177.509V178.761L202.761 177.111H202.82V186H204.053V175.818ZM209.507 180.909C209.507 178.403 208.831 176.315 207.618 174.545H206.584C207.539 175.858 208.294 178.543 208.294 180.909C208.294 183.276 207.539 185.96 206.584 187.273H207.618C208.831 185.503 209.507 183.415 209.507 180.909Z" fill="black"/>
<path d="M288.87 179.909C288.87 182.415 289.547 184.503 290.76 186.273H291.794C290.839 184.96 290.083 182.276 290.083 179.909C290.083 177.543 290.839 174.858 291.794 173.545H290.76C289.547 175.315 288.87 177.403 288.87 179.909ZM293.505 185H299.928V183.906H295.195V183.827L297.482 181.381C299.232 179.506 299.749 178.631 299.749 177.503C299.749 175.932 298.477 174.679 296.687 174.679C294.902 174.679 293.545 175.892 293.545 177.682H294.718C294.718 176.523 295.469 175.753 296.647 175.753C297.751 175.753 298.596 176.429 298.596 177.503C298.596 178.442 298.044 179.138 296.866 180.426L293.505 184.105V185ZM304.507 179.909C304.507 177.403 303.831 175.315 302.618 173.545H301.584C302.539 174.858 303.294 177.543 303.294 179.909C303.294 182.276 302.539 184.96 301.584 186.273H302.618C303.831 184.503 304.507 182.415 304.507 179.909Z" fill="black"/>
<g filter="url(#filter1_d)">
<rect x="19" y="63" width="320" height="210" rx="10" fill="white"/>
<rect x="19.5" y="63.5" width="319" height="209" rx="9.5" stroke="#E3E3E3"/>
</g>
<circle cx="52" cy="99" r="15" fill="#E4E4E4"/>
<rect x="76" y="85" width="106" height="6" rx="3" fill="#E4E4E4"/>
<rect x="76" y="135" width="237" height="6" rx="3" fill="#E4E4E4"/>
<rect x="76" y="167" width="237" height="6" rx="3" fill="#E4E4E4"/>
<rect x="76" y="102" width="40" height="6" rx="3" fill="#E4E4E4"/>
<line x1="21" y1="212.5" x2="339" y2="212.5" stroke="#E4E4E4"/>
<path d="M94 238V234C94 233.204 93.6839 232.441 93.1213 231.879C92.5587 231.316 91.7956 231 91 231L87 240V251H98.28C98.7623 251.005 99.2304 250.836 99.5979 250.524C99.9654 250.212 100.208 249.777 100.28 249.3L101.66 240.3C101.704 240.013 101.684 239.721 101.603 239.442C101.523 239.164 101.382 238.906 101.192 238.688C101.002 238.469 100.766 238.294 100.502 238.175C100.237 238.057 99.9499 237.997 99.66 238H94ZM87 251H84C83.4696 251 82.9609 250.789 82.5858 250.414C82.2107 250.039 82 249.53 82 249V242C82 241.47 82.2107 240.961 82.5858 240.586C82.9609 240.211 83.4696 240 84 240H87" fill="white" fill-opacity="0.22"/>
<path d="M87 251H84C83.4696 251 82.9609 250.789 82.5858 250.414C82.2107 250.039 82 249.53 82 249V242C82 241.47 82.2107 240.961 82.5858 240.586C82.9609 240.211 83.4696 240 84 240H87M94 238V234C94 233.204 93.6839 232.441 93.1213 231.879C92.5587 231.316 91.7956 231 91 231L87 240V251H98.28C98.7623 251.005 99.2304 250.836 99.5979 250.524C99.9654 250.212 100.208 249.777 100.28 249.3L101.66 240.3C101.704 240.013 101.684 239.721 101.603 239.442C101.523 239.164 101.382 238.906 101.192 238.688C101.002 238.469 100.766 238.294 100.502 238.175C100.237 238.057 99.9499 237.997 99.66 238H94Z" stroke="black" stroke-linecap="round" stroke-linejoin="round"/>
<path d="M197 240.5C197.003 241.82 196.695 243.122 196.1 244.3C195.394 245.712 194.31 246.899 192.967 247.729C191.625 248.559 190.078 248.999 188.5 249C187.18 249.003 185.878 248.695 184.7 248.1L179 250L180.9 244.3C180.305 243.122 179.997 241.82 180 240.5C180.001 238.922 180.441 237.375 181.271 236.033C182.101 234.69 183.288 233.606 184.7 232.9C185.878 232.305 187.18 231.997 188.5 232H189C191.084 232.115 193.053 232.995 194.529 234.471C196.005 235.947 196.885 237.916 197 240V240.5Z" stroke="#282828" stroke-width="1.5" stroke-linecap="round" stroke-linejoin="round"/>
<path d="M295 233V239H289" stroke="#282828" stroke-width="1.5" stroke-linecap="round" stroke-linejoin="round"/>
<path d="M273 249V243H279" stroke="#282828" stroke-width="1.5" stroke-linecap="round" stroke-linejoin="round"/>
<path d="M275.51 238C276.017 236.567 276.879 235.285 278.015 234.275C279.152 233.265 280.525 232.56 282.008 232.224C283.491 231.889 285.035 231.934 286.495 232.357C287.956 232.779 289.285 233.565 290.36 234.64L295 239M273 243L277.64 247.36C278.715 248.435 280.044 249.221 281.505 249.643C282.965 250.066 284.509 250.111 285.992 249.776C287.475 249.44 288.848 248.735 289.985 247.725C291.121 246.715 291.983 245.433 292.49 244" stroke="#282828" stroke-width="1.5" stroke-linecap="round" stroke-linejoin="round"/>
<path d="M110.45 242.909C110.45 245.415 111.127 247.503 112.34 249.273H113.374C112.419 247.96 111.664 245.276 111.664 242.909C111.664 240.543 112.419 237.858 113.374 236.545H112.34C111.127 238.315 110.45 240.403 110.45 242.909ZM118.526 248.139C120.499 248.139 121.966 246.901 121.966 245.236C121.966 243.943 121.2 243.004 119.918 242.79V242.71C120.947 242.397 121.588 241.552 121.588 240.403C121.588 238.962 120.45 237.679 118.565 237.679C116.805 237.679 115.344 238.763 115.284 240.364H116.477C116.522 239.349 117.487 238.753 118.545 238.753C119.669 238.753 120.395 239.434 120.395 240.463C120.395 241.537 119.555 242.233 118.347 242.233H117.531V243.327H118.347C119.893 243.327 120.753 244.112 120.753 245.236C120.753 246.315 119.813 247.045 118.506 247.045C117.327 247.045 116.393 246.439 116.318 245.455H115.065C115.14 247.055 116.552 248.139 118.526 248.139ZM123.761 245.912H128.553V248H129.727V245.912H131.119V244.818H129.727V237.818H128.235L123.761 244.898V245.912ZM128.553 244.818H125.093V244.739L128.474 239.389H128.553V244.818ZM135.507 242.909C135.507 240.403 134.831 238.315 133.618 236.545H132.584C133.539 237.858 134.294 240.543 134.294 242.909C134.294 245.276 133.539 247.96 132.584 249.273H133.618C134.831 247.503 135.507 245.415 135.507 242.909Z" fill="black"/>
<path d="M208.839 241.909C208.839 244.415 209.515 246.503 210.728 248.273H211.762C210.808 246.96 210.052 244.276 210.052 241.909C210.052 239.543 210.808 236.858 211.762 235.545H210.728C209.515 237.315 208.839 239.403 208.839 241.909ZM217.053 236.818H215.82L213.275 238.509V239.761L215.761 238.111H215.82V247H217.053V236.818ZM222.507 241.909C222.507 239.403 221.831 237.315 220.618 235.545H219.584C220.539 236.858 221.294 239.543 221.294 241.909C221.294 244.276 220.539 246.96 219.584 248.273H220.618C221.831 246.503 222.507 244.415 222.507 241.909Z" fill="black"/>
<path d="M301.87 240.909C301.87 243.415 302.547 245.503 303.76 247.273H304.794C303.839 245.96 303.083 243.276 303.083 240.909C303.083 238.543 303.839 235.858 304.794 234.545H303.76C302.547 236.315 301.87 238.403 301.87 240.909ZM306.505 246H312.928V244.906H308.195V244.827L310.482 242.381C312.232 240.506 312.749 239.631 312.749 238.503C312.749 236.932 311.477 235.679 309.687 235.679C307.902 235.679 306.545 236.892 306.545 238.682H307.718C307.718 237.523 308.469 236.753 309.647 236.753C310.751 236.753 311.596 237.429 311.596 238.503C311.596 239.442 311.044 240.138 309.866 241.426L306.505 245.105V246ZM317.507 240.909C317.507 238.403 316.831 236.315 315.618 234.545H314.584C315.539 235.858 316.294 238.543 316.294 240.909C316.294 243.276 315.539 245.96 314.584 247.273H315.618C316.831 245.503 317.507 243.415 317.507 240.909Z" fill="black"/>
<defs>
<filter id="filter0_d" x="0" y="0" width="332" height="222" filterUnits="userSpaceOnUse" color-interpolation-filters="sRGB">
<feFlood flood-opacity="0" result="BackgroundImageFix"/>
<feColorMatrix in="SourceAlpha" type="matrix" values="0 0 0 0 0 0 0 0 0 0 0 0 0 0 0 0 0 0 127 0"/>
<feMorphology radius="2" operator="dilate" in="SourceAlpha" result="effect1_dropShadow"/>
<feOffset dy="4"/>
<feGaussianBlur stdDeviation="2"/>
<feColorMatrix type="matrix" values="0 0 0 0 0 0 0 0 0 0 0 0 0 0 0 0 0 0 0.04 0"/>
<feBlend mode="normal" in2="BackgroundImageFix" result="effect1_dropShadow"/>
<feBlend mode="normal" in="SourceGraphic" in2="effect1_dropShadow" result="shape"/>
</filter>
<filter id="filter1_d" x="13" y="61" width="332" height="222" filterUnits="userSpaceOnUse" color-interpolation-filters="sRGB">
<feFlood flood-opacity="0" result="BackgroundImageFix"/>
<feColorMatrix in="SourceAlpha" type="matrix" values="0 0 0 0 0 0 0 0 0 0 0 0 0 0 0 0 0 0 127 0"/>
<feMorphology radius="2" operator="dilate" in="SourceAlpha" result="effect1_dropShadow"/>
<feOffset dy="4"/>
<feGaussianBlur stdDeviation="2"/>
<feColorMatrix type="matrix" values="0 0 0 0 0 0 0 0 0 0 0 0 0 0 0 0 0 0 0.04 0"/>
<feBlend mode="normal" in2="BackgroundImageFix" result="effect1_dropShadow"/>
<feBlend mode="normal" in="SourceGraphic" in2="effect1_dropShadow" result="shape"/>
</filter>
</defs>
</svg>
