<svg width="236" height="305" viewBox="0 0 236 305" fill="none" xmlns="http://www.w3.org/2000/svg">
<rect width="236" height="305" fill="#282731"/>
<rect width="360" height="640" transform="translate(-67 -162)" fill="white"/>
<g filter="url(#filter0_d)">
<rect x="6" y="2" width="224" height="293" rx="10" fill="white"/>
<rect x="6.5" y="2.5" width="223" height="292" rx="9.5" stroke="#E3E3E3"/>
</g>
<path d="M93.8041 33L91.1761 28.23H90.4381V33H87.3601V20.364H92.5261C93.5221 20.364 94.3681 20.538 95.0641 20.886C95.7721 21.234 96.3001 21.714 96.6481 22.326C96.9961 22.926 97.1701 23.598 97.1701 24.342C97.1701 25.182 96.9301 25.932 96.4501 26.592C95.9821 27.252 95.2861 27.72 94.3621 27.996L97.2781 33H93.8041ZM90.4381 26.052H92.3461C92.9101 26.052 93.3301 25.914 93.6061 25.638C93.8941 25.362 94.0381 24.972 94.0381 24.468C94.0381 23.988 93.8941 23.61 93.6061 23.334C93.3301 23.058 92.9101 22.92 92.3461 22.92H90.4381V26.052Z" fill="black"/>
<path d="M103.674 33.144C102.69 33.144 101.802 32.934 101.01 32.514C100.23 32.094 99.6123 31.494 99.1563 30.714C98.7123 29.934 98.4903 29.022 98.4903 27.978C98.4903 26.946 98.7183 26.04 99.1743 25.26C99.6303 24.468 100.254 23.862 101.046 23.442C101.838 23.022 102.726 22.812 103.71 22.812C104.694 22.812 105.582 23.022 106.374 23.442C107.166 23.862 107.79 24.468 108.246 25.26C108.702 26.04 108.93 26.946 108.93 27.978C108.93 29.01 108.696 29.922 108.228 30.714C107.772 31.494 107.142 32.094 106.338 32.514C105.546 32.934 104.658 33.144 103.674 33.144ZM103.674 30.48C104.262 30.48 104.76 30.264 105.168 29.832C105.588 29.4 105.798 28.782 105.798 27.978C105.798 27.174 105.594 26.556 105.186 26.124C104.79 25.692 104.298 25.476 103.71 25.476C103.11 25.476 102.612 25.692 102.216 26.124C101.82 26.544 101.622 27.162 101.622 27.978C101.622 28.782 101.814 29.4 102.198 29.832C102.594 30.264 103.086 30.48 103.674 30.48Z" fill="black"/>
<path d="M115.135 33.144C114.151 33.144 113.263 32.934 112.471 32.514C111.691 32.094 111.073 31.494 110.617 30.714C110.173 29.934 109.951 29.022 109.951 27.978C109.951 26.946 110.179 26.04 110.635 25.26C111.091 24.468 111.715 23.862 112.507 23.442C113.299 23.022 114.187 22.812 115.171 22.812C116.155 22.812 117.043 23.022 117.835 23.442C118.627 23.862 119.251 24.468 119.707 25.26C120.163 26.04 120.391 26.946 120.391 27.978C120.391 29.01 120.157 29.922 119.689 30.714C119.233 31.494 118.603 32.094 117.799 32.514C117.007 32.934 116.119 33.144 115.135 33.144ZM115.135 30.48C115.723 30.48 116.221 30.264 116.629 29.832C117.049 29.4 117.259 28.782 117.259 27.978C117.259 27.174 117.055 26.556 116.647 26.124C116.251 25.692 115.759 25.476 115.171 25.476C114.571 25.476 114.073 25.692 113.677 26.124C113.281 26.544 113.083 27.162 113.083 27.978C113.083 28.782 113.275 29.4 113.659 29.832C114.055 30.264 114.547 30.48 115.135 30.48Z" fill="black"/>
<path d="M134.84 22.848C136.088 22.848 137.078 23.226 137.81 23.982C138.554 24.738 138.926 25.788 138.926 27.132V33H135.866V27.546C135.866 26.898 135.692 26.4 135.344 26.052C135.008 25.692 134.54 25.512 133.94 25.512C133.34 25.512 132.866 25.692 132.518 26.052C132.182 26.4 132.014 26.898 132.014 27.546V33H128.954V27.546C128.954 26.898 128.78 26.4 128.432 26.052C128.096 25.692 127.628 25.512 127.028 25.512C126.428 25.512 125.954 25.692 125.606 26.052C125.27 26.4 125.102 26.898 125.102 27.546V33H122.024V22.956H125.102V24.216C125.414 23.796 125.822 23.466 126.326 23.226C126.83 22.974 127.4 22.848 128.036 22.848C128.792 22.848 129.464 23.01 130.052 23.334C130.652 23.658 131.12 24.12 131.456 24.72C131.804 24.168 132.278 23.718 132.878 23.37C133.478 23.022 134.132 22.848 134.84 22.848Z" fill="black"/>
<path d="M145.165 33.144C144.289 33.144 143.509 32.994 142.825 32.694C142.141 32.394 141.601 31.986 141.205 31.47C140.809 30.942 140.587 30.354 140.539 29.706H143.581C143.617 30.054 143.779 30.336 144.067 30.552C144.355 30.768 144.709 30.876 145.129 30.876C145.513 30.876 145.807 30.804 146.011 30.66C146.227 30.504 146.335 30.306 146.335 30.066C146.335 29.778 146.185 29.568 145.885 29.436C145.585 29.292 145.099 29.136 144.427 28.968C143.707 28.8 143.107 28.626 142.627 28.446C142.147 28.254 141.733 27.96 141.385 27.564C141.037 27.156 140.863 26.61 140.863 25.926C140.863 25.35 141.019 24.828 141.331 24.36C141.655 23.88 142.123 23.502 142.735 23.226C143.359 22.95 144.097 22.812 144.949 22.812C146.209 22.812 147.199 23.124 147.919 23.748C148.651 24.372 149.071 25.2 149.179 26.232H146.335C146.287 25.884 146.131 25.608 145.867 25.404C145.615 25.2 145.279 25.098 144.859 25.098C144.499 25.098 144.223 25.17 144.031 25.314C143.839 25.446 143.743 25.632 143.743 25.872C143.743 26.16 143.893 26.376 144.193 26.52C144.505 26.664 144.985 26.808 145.633 26.952C146.377 27.144 146.983 27.336 147.451 27.528C147.919 27.708 148.327 28.008 148.675 28.428C149.035 28.836 149.221 29.388 149.233 30.084C149.233 30.672 149.065 31.2 148.729 31.668C148.405 32.124 147.931 32.484 147.307 32.748C146.695 33.012 145.981 33.144 145.165 33.144Z" fill="black"/>
<circle cx="38" cy="78" r="12" fill="#E4E4E4"/>
<rect x="73" y="74" width="40" height="6" rx="3" fill="#E4E4E4"/>
<line x1="21.9974" y1="104.5" x2="211.997" y2="103.516" stroke="#EAEAEA"/>
<rect x="152.5" y="64.5" width="56" height="21" rx="3.5" stroke="#3550A3"/>
<path d="M171.315 70.2727V76.358C171.311 77.1974 170.936 77.6406 170.254 77.6406C169.611 77.6406 169.193 77.2401 169.18 76.5455H167.344C167.335 78.2884 168.58 79.1193 170.161 79.1193C171.929 79.1193 173.135 78.0497 173.139 76.358V70.2727H171.315Z" fill="#3550A3"/>
<path d="M177.588 79.1278C179.574 79.1278 180.81 77.7685 180.81 75.7528C180.81 73.7244 179.574 72.3693 177.588 72.3693C175.602 72.3693 174.367 73.7244 174.367 75.7528C174.367 77.7685 175.602 79.1278 177.588 79.1278ZM177.597 77.7216C176.68 77.7216 176.212 76.8821 176.212 75.7401C176.212 74.598 176.68 73.7543 177.597 73.7543C178.496 73.7543 178.965 74.598 178.965 75.7401C178.965 76.8821 178.496 77.7216 177.597 77.7216Z" fill="#3550A3"/>
<path d="M181.99 79H183.805V72.4545H181.99V79ZM182.902 71.6108C183.443 71.6108 183.886 71.1974 183.886 70.6903C183.886 70.1875 183.443 69.7741 182.902 69.7741C182.365 69.7741 181.922 70.1875 181.922 70.6903C181.922 71.1974 182.365 71.6108 182.902 71.6108Z" fill="#3550A3"/>
<path d="M187.075 75.2159C187.079 74.3722 187.582 73.8778 188.315 73.8778C189.044 73.8778 189.483 74.3551 189.478 75.1562V79H191.294V74.8324C191.294 73.3068 190.399 72.3693 189.035 72.3693C188.064 72.3693 187.36 72.8466 187.066 73.6094H186.99V72.4545H185.26V79H187.075V75.2159Z" fill="#3550A3"/>
<circle cx="38" cy="138" r="12" fill="#E4E4E4"/>
<rect x="73" y="134" width="40" height="6" rx="3" fill="#E4E4E4"/>
<line x1="21.9974" y1="164.5" x2="211.997" y2="163.516" stroke="#EAEAEA"/>
<rect x="152.5" y="124.5" width="56" height="21" rx="3.5" stroke="#3550A3"/>
<path d="M171.315 130.273V136.358C171.311 137.197 170.936 137.641 170.254 137.641C169.611 137.641 169.193 137.24 169.18 136.545H167.344C167.335 138.288 168.58 139.119 170.161 139.119C171.929 139.119 173.135 138.05 173.139 136.358V130.273H171.315Z" fill="#3550A3"/>
<path d="M177.588 139.128C179.574 139.128 180.81 137.768 180.81 135.753C180.81 133.724 179.574 132.369 177.588 132.369C175.602 132.369 174.367 133.724 174.367 135.753C174.367 137.768 175.602 139.128 177.588 139.128ZM177.597 137.722C176.68 137.722 176.212 136.882 176.212 135.74C176.212 134.598 176.68 133.754 177.597 133.754C178.496 133.754 178.965 134.598 178.965 135.74C178.965 136.882 178.496 137.722 177.597 137.722Z" fill="#3550A3"/>
<path d="M181.99 139H183.805V132.455H181.99V139ZM182.902 131.611C183.443 131.611 183.886 131.197 183.886 130.69C183.886 130.187 183.443 129.774 182.902 129.774C182.365 129.774 181.922 130.187 181.922 130.69C181.922 131.197 182.365 131.611 182.902 131.611Z" fill="#3550A3"/>
<path d="M187.075 135.216C187.079 134.372 187.582 133.878 188.315 133.878C189.044 133.878 189.483 134.355 189.478 135.156V139H191.294V134.832C191.294 133.307 190.399 132.369 189.035 132.369C188.064 132.369 187.36 132.847 187.066 133.609H186.99V132.455H185.26V139H187.075V135.216Z" fill="#3550A3"/>
<circle cx="38" cy="198" r="12" fill="#E4E4E4"/>
<rect x="73" y="194" width="40" height="6" rx="3" fill="#E4E4E4"/>
<line x1="21.9974" y1="224.5" x2="211.997" y2="223.516" stroke="#EAEAEA"/>
<rect x="152.5" y="184.5" width="56" height="21" rx="3.5" stroke="#3550A3"/>
<path d="M171.315 190.273V196.358C171.311 197.197 170.936 197.641 170.254 197.641C169.611 197.641 169.193 197.24 169.18 196.545H167.344C167.335 198.288 168.58 199.119 170.161 199.119C171.929 199.119 173.135 198.05 173.139 196.358V190.273H171.315Z" fill="#3550A3"/>
<path d="M177.588 199.128C179.574 199.128 180.81 197.768 180.81 195.753C180.81 193.724 179.574 192.369 177.588 192.369C175.602 192.369 174.367 193.724 174.367 195.753C174.367 197.768 175.602 199.128 177.588 199.128ZM177.597 197.722C176.68 197.722 176.212 196.882 176.212 195.74C176.212 194.598 176.68 193.754 177.597 193.754C178.496 193.754 178.965 194.598 178.965 195.74C178.965 196.882 178.496 197.722 177.597 197.722Z" fill="#3550A3"/>
<path d="M181.99 199H183.805V192.455H181.99V199ZM182.902 191.611C183.443 191.611 183.886 191.197 183.886 190.69C183.886 190.187 183.443 189.774 182.902 189.774C182.365 189.774 181.922 190.187 181.922 190.69C181.922 191.197 182.365 191.611 182.902 191.611Z" fill="#3550A3"/>
<path d="M187.075 195.216C187.079 194.372 187.582 193.878 188.315 193.878C189.044 193.878 189.483 194.355 189.478 195.156V199H191.294V194.832C191.294 193.307 190.399 192.369 189.035 192.369C188.064 192.369 187.36 192.847 187.066 193.609H186.99V192.455H185.26V199H187.075V195.216Z" fill="#3550A3"/>
<circle cx="38" cy="258" r="12" fill="#E4E4E4"/>
<rect x="73" y="254" width="40" height="6" rx="3" fill="#E4E4E4"/>
<line x1="21.9974" y1="284.5" x2="211.997" y2="283.516" stroke="#EAEAEA"/>
<rect x="152.5" y="244.5" width="56" height="21" rx="3.5" stroke="#3550A3"/>
<path d="M171.315 250.273V256.358C171.311 257.197 170.936 257.641 170.254 257.641C169.611 257.641 169.193 257.24 169.18 256.545H167.344C167.335 258.288 168.58 259.119 170.161 259.119C171.929 259.119 173.135 258.05 173.139 256.358V250.273H171.315Z" fill="#3550A3"/>
<path d="M177.588 259.128C179.574 259.128 180.81 257.768 180.81 255.753C180.81 253.724 179.574 252.369 177.588 252.369C175.602 252.369 174.367 253.724 174.367 255.753C174.367 257.768 175.602 259.128 177.588 259.128ZM177.597 257.722C176.68 257.722 176.212 256.882 176.212 255.74C176.212 254.598 176.68 253.754 177.597 253.754C178.496 253.754 178.965 254.598 178.965 255.74C178.965 256.882 178.496 257.722 177.597 257.722Z" fill="#3550A3"/>
<path d="M181.99 259H183.805V252.455H181.99V259ZM182.902 251.611C183.443 251.611 183.886 251.197 183.886 250.69C183.886 250.187 183.443 249.774 182.902 249.774C182.365 249.774 181.922 250.187 181.922 250.69C181.922 251.197 182.365 251.611 182.902 251.611Z" fill="#3550A3"/>
<path d="M187.075 255.216C187.079 254.372 187.582 253.878 188.315 253.878C189.044 253.878 189.483 254.355 189.478 255.156V259H191.294V254.832C191.294 253.307 190.399 252.369 189.035 252.369C188.064 252.369 187.36 252.847 187.066 253.609H186.99V252.455H185.26V259H187.075V255.216Z" fill="#3550A3"/>
<defs>
<filter id="filter0_d" x="0" y="0" width="236" height="305" filterUnits="userSpaceOnUse" color-interpolation-filters="sRGB">
<feFlood flood-opacity="0" result="BackgroundImageFix"/>
<feColorMatrix in="SourceAlpha" type="matrix" values="0 0 0 0 0 0 0 0 0 0 0 0 0 0 0 0 0 0 127 0"/>
<feMorphology radius="2" operator="dilate" in="SourceAlpha" result="effect1_dropShadow"/>
<feOffset dy="4"/>
<feGaussianBlur stdDeviation="2"/>
<feColorMatrix type="matrix" values="0 0 0 0 0 0 0 0 0 0 0 0 0 0 0 0 0 0 0.04 0"/>
<feBlend mode="normal" in2="BackgroundImageFix" result="effect1_dropShadow"/>
<feBlend mode="normal" in="SourceGraphic" in2="effect1_dropShadow" result="shape"/>
</filter>
</defs>
</svg>
