<svg width="236" height="305" viewBox="0 0 236 305" fill="none" xmlns="http://www.w3.org/2000/svg">
<rect width="236" height="305" fill="#282731"/>
<rect width="360" height="640" transform="translate(-67 -162)" fill="white"/>
<g filter="url(#filter0_d)">
<rect x="6" y="2" width="224" height="293" rx="10" fill="white"/>
<rect x="6.5" y="2.5" width="223" height="292" rx="9.5" stroke="#E3E3E3"/>
</g>
<path d="M25.3694 88L26.037 86.0753H28.8779L29.5419 88H30.7067L28.0895 80.7273H26.8218L24.2046 88H25.3694ZM26.3566 85.152L27.429 82.0483H27.4858L28.5583 85.152H26.3566Z" fill="black"/>
<path d="M32.3713 88L33.0389 86.0753H35.8798L36.5439 88H37.7087L35.0915 80.7273H33.8237L31.2065 88H32.3713ZM33.3585 85.152L34.431 82.0483H34.4878L35.5602 85.152H33.3585Z" fill="black"/>
<path d="M38.7589 88H39.8562V85.4432H41.3477C43.0345 85.4432 43.869 84.424 43.869 83.0817C43.869 81.7429 43.0416 80.7273 41.3513 80.7273H38.7589V88ZM39.8562 84.5128V81.6683H41.2341C42.3207 81.6683 42.7646 82.2578 42.7646 83.0817C42.7646 83.9055 42.3207 84.5128 41.2483 84.5128H39.8562Z" fill="black"/>
<path d="M45.1554 88H49.5482V87.0554H46.2527V80.7273H45.1554V88Z" fill="black"/>
<path d="M24.4843 118.672H26.7499V125H27.8436V118.672H30.1128V117.727H24.4843V118.672Z" fill="black"/>
<path d="M35.3232 119.638H36.3814C36.3495 118.473 35.3197 117.628 33.8424 117.628C32.3829 117.628 31.2643 118.462 31.2643 119.716C31.2643 120.728 31.9887 121.321 33.157 121.637L34.0164 121.871C34.7941 122.077 35.3942 122.333 35.3942 122.979C35.3942 123.69 34.716 124.158 33.782 124.158C32.9368 124.158 32.2337 123.782 32.1698 122.99H31.0689C31.14 124.308 32.1591 125.121 33.7891 125.121C35.4972 125.121 36.4809 124.222 36.4809 122.99C36.4809 121.68 35.3126 121.172 34.3893 120.945L33.679 120.76C33.1109 120.614 32.3545 120.348 32.358 119.652C32.358 119.034 32.9226 118.576 33.8175 118.576C34.652 118.576 35.2451 118.967 35.3232 119.638Z" fill="black"/>
<path d="M37.7921 125H42.1849V124.055H38.8894V117.727H37.7921V125Z" fill="black"/>
<path d="M44.4123 125L45.08 123.075H47.9209L48.5849 125H49.7497L47.1325 117.727H45.8648L43.2476 125H44.4123ZM45.3996 122.152L46.472 119.048H46.5288L47.6013 122.152H45.3996Z" fill="black"/>
<path d="M25.0167 156.727V164H26.0608V158.734H26.1282L28.2731 163.989H29.1396L31.2845 158.737H31.352V164H32.396V156.727H31.0643L28.749 162.381H28.6637L26.3484 156.727H25.0167Z" fill="black"/>
<path d="M37.958 158.638H39.0162C38.9842 157.473 37.9544 156.628 36.4771 156.628C35.0176 156.628 33.899 157.462 33.899 158.716C33.899 159.728 34.6234 160.321 35.7918 160.637L36.6511 160.871C37.4288 161.077 38.029 161.333 38.029 161.979C38.029 162.69 37.3507 163.158 36.4168 163.158C35.5716 163.158 34.8685 162.782 34.8045 161.99H33.7037C33.7747 163.308 34.7939 164.121 36.4239 164.121C38.132 164.121 39.1156 163.222 39.1156 161.99C39.1156 160.68 37.9473 160.172 37.024 159.945L36.3138 159.76C35.7456 159.614 34.9892 159.348 34.9928 158.652C34.9928 158.034 35.5574 157.576 36.4523 157.576C37.2868 157.576 37.8798 157.967 37.958 158.638Z" fill="black"/>
<path d="M40.4269 164H41.5242V160.829H44.6137V159.888H41.5242V157.672H44.9368V156.727H40.4269V164Z" fill="black"/>
<path d="M45.9276 157.672H48.1932V164H49.287V157.672H51.5561V156.727H45.9276V157.672Z" fill="black"/>
<path d="M29.2062 199.025H30.3319C30.0869 197.608 28.8759 196.628 27.3063 196.628C25.4242 196.628 24.0499 198.045 24.0499 200.367C24.0499 202.668 25.3852 204.099 27.356 204.099C29.1209 204.099 30.3816 202.942 30.3816 201.106V200.278H27.5229V201.184H29.3198C29.295 202.356 28.5208 203.098 27.356 203.098C26.0741 203.098 25.1401 202.129 25.1401 200.36C25.1401 198.599 26.0812 197.629 27.3134 197.629C28.2793 197.629 28.9327 198.162 29.2062 199.025Z" fill="black"/>
<path d="M31.7745 204H36.3768V203.055H32.8718V200.829H36.0963V199.888H32.8718V197.672H36.3342V196.727H31.7745V204Z" fill="black"/>
<path d="M24.7176 100L25.3029 98.3523H27.6551L28.2404 100H28.979L26.8426 94.1818H26.1154L23.979 100H24.7176ZM25.5245 97.7273L26.4563 95.1023H26.5017L27.4335 97.7273H25.5245Z" fill="black"/>
<path d="M29.7943 101.636H30.4648V99.3296H30.5216C30.6693 99.5682 30.9534 100.091 31.7943 100.091C32.8853 100.091 33.6466 99.2159 33.6466 97.8296C33.6466 96.4546 32.8853 95.5796 31.783 95.5796C30.9307 95.5796 30.6693 96.1023 30.5216 96.3296H30.4421V95.6364H29.7943V101.636ZM30.4534 97.8182C30.4534 96.8409 30.8853 96.1818 31.7034 96.1818C32.5557 96.1818 32.9762 96.8977 32.9762 97.8182C32.9762 98.75 32.5443 99.4886 31.7034 99.4886C30.8966 99.4886 30.4534 98.8068 30.4534 97.8182Z" fill="black"/>
<path d="M34.6693 101.636H35.3398V99.3296H35.3966C35.5443 99.5682 35.8284 100.091 36.6693 100.091C37.7603 100.091 38.5216 99.2159 38.5216 97.8296C38.5216 96.4546 37.7603 95.5796 36.658 95.5796C35.8057 95.5796 35.5443 96.1023 35.3966 96.3296H35.3171V95.6364H34.6693V101.636ZM35.3284 97.8182C35.3284 96.8409 35.7603 96.1818 36.5784 96.1818C37.4307 96.1818 37.8512 96.8977 37.8512 97.8182C37.8512 98.75 37.4193 99.4886 36.5784 99.4886C35.7716 99.4886 35.3284 98.8068 35.3284 97.8182Z" fill="black"/>
<path d="M40.2148 94.1818H39.5443V100H40.2148V94.1818Z" fill="black"/>
<path d="M43.2723 100.091C44.1587 100.091 44.8064 99.6477 45.011 98.9886L44.3632 98.8068C44.1928 99.2614 43.7979 99.4886 43.2723 99.4886C42.4854 99.4886 41.9428 98.9801 41.9115 98.0455H45.0791V97.7614C45.0791 96.1364 44.1132 95.5796 43.2041 95.5796C42.0223 95.5796 41.2382 96.5114 41.2382 97.8523C41.2382 99.1932 42.011 100.091 43.2723 100.091ZM41.9115 97.4659C41.957 96.7869 42.4371 96.1818 43.2041 96.1818C43.9314 96.1818 44.3973 96.7273 44.3973 97.4659H41.9115Z" fill="black"/>
<path d="M49.1445 94.1818H48.4399V100H49.1445V94.1818Z" fill="black"/>
<path d="M51.1367 97.375C51.1367 96.6136 51.6083 96.1818 52.2503 96.1818C52.8725 96.1818 53.2503 96.5881 53.2503 97.2727V100H53.9208V97.2273C53.9208 96.1136 53.327 95.5796 52.4435 95.5796C51.7844 95.5796 51.3753 95.875 51.1708 96.3182H51.1139V95.6364H50.4662V100H51.1367V97.375Z" fill="black"/>
<path d="M56.9186 100.091C57.8845 100.091 58.5209 99.5 58.6345 98.7273H57.9641C57.8391 99.2046 57.4414 99.4886 56.9186 99.4886C56.1232 99.4886 55.6118 98.8296 55.6118 97.8182C55.6118 96.8296 56.1345 96.1818 56.9186 96.1818C57.5095 96.1818 57.8618 96.5455 57.9641 96.9432H58.6345C58.5209 96.125 57.8277 95.5796 56.9073 95.5796C55.7255 95.5796 54.9414 96.5114 54.9414 97.8409C54.9414 99.1477 55.6914 100.091 56.9186 100.091Z" fill="black"/>
<path d="M24.7155 131.807H26.545V137H27.2495V131.807H29.0791V131.182H24.7155V131.807Z" fill="black"/>
<path d="M31.2723 137.091C32.1586 137.091 32.8064 136.648 33.0109 135.989L32.3632 135.807C32.1927 136.261 31.7978 136.489 31.2723 136.489C30.4853 136.489 29.9427 135.98 29.9115 135.045H33.0791V134.761C33.0791 133.136 32.1132 132.58 31.2041 132.58C30.0223 132.58 29.2382 133.511 29.2382 134.852C29.2382 136.193 30.0109 137.091 31.2723 137.091ZM29.9115 134.466C29.9569 133.787 30.437 133.182 31.2041 133.182C31.9314 133.182 32.3973 133.727 32.3973 134.466H29.9115Z" fill="black"/>
<path d="M37.1899 133.614C36.9797 132.994 36.5081 132.58 35.6444 132.58C34.724 132.58 34.0422 133.102 34.0422 133.841C34.0422 134.443 34.4001 134.847 35.2012 135.034L35.9285 135.205C36.3689 135.307 36.5762 135.517 36.5762 135.818C36.5762 136.193 36.1785 136.5 35.5535 136.5C35.0052 136.5 34.6615 136.264 34.5422 135.795L33.9058 135.955C34.062 136.696 34.6728 137.091 35.5649 137.091C36.5791 137.091 37.2694 136.537 37.2694 135.784C37.2694 135.176 36.8887 134.793 36.1103 134.602L35.4626 134.443C34.9456 134.315 34.7126 134.142 34.7126 133.807C34.7126 133.432 35.1103 133.159 35.6444 133.159C36.2297 133.159 36.4711 133.483 36.5876 133.784L37.1899 133.614Z" fill="black"/>
<path d="M38.9491 131.182H38.2787V137H38.9491V131.182Z" fill="black"/>
<path d="M41.4612 137.102C42.2226 137.102 42.6203 136.693 42.7566 136.409H42.7907V137H43.4612V134.125C43.4612 132.739 42.4044 132.58 41.8476 132.58C41.1885 132.58 40.4385 132.807 40.0976 133.602L40.7339 133.83C40.8816 133.511 41.2311 133.17 41.8703 133.17C42.4868 133.17 42.7907 133.497 42.7907 134.057V134.08C42.7907 134.403 42.4612 134.375 41.6657 134.477C40.8561 134.582 39.9726 134.761 39.9726 135.761C39.9726 136.614 40.6316 137.102 41.4612 137.102ZM41.5635 136.5C41.0294 136.5 40.643 136.261 40.643 135.795C40.643 135.284 41.1089 135.125 41.6316 135.057C41.9157 135.023 42.6771 134.943 42.7907 134.807V135.42C42.7907 135.966 42.3589 136.5 41.5635 136.5Z" fill="black"/>
<path d="M47.0258 131.182V137H47.6849V132.58H47.7417L49.5599 137H50.1963L52.0145 132.58H52.0713V137H52.7304V131.182H51.8895L49.9122 136.011H49.844L47.8667 131.182H47.0258Z" fill="black"/>
<path d="M55.8248 137.091C57.0066 137.091 57.8021 136.193 57.8021 134.841C57.8021 133.477 57.0066 132.58 55.8248 132.58C54.643 132.58 53.8476 133.477 53.8476 134.841C53.8476 136.193 54.643 137.091 55.8248 137.091ZM55.8248 136.489C54.9271 136.489 54.518 135.716 54.518 134.841C54.518 133.966 54.9271 133.182 55.8248 133.182C56.7226 133.182 57.1316 133.966 57.1316 134.841C57.1316 135.716 56.7226 136.489 55.8248 136.489Z" fill="black"/>
<path d="M60.7233 132.636H59.7914V131.591H59.121V132.636H58.4619V133.205H59.121V135.932C59.121 136.693 59.7346 137.057 60.3028 137.057C60.5528 137.057 60.7119 137.011 60.8028 136.977L60.6664 136.375C60.6096 136.386 60.5187 136.409 60.371 136.409C60.0755 136.409 59.7914 136.318 59.7914 135.75V133.205H60.7233V132.636Z" fill="black"/>
<path d="M63.4576 137.091C64.6395 137.091 65.4349 136.193 65.4349 134.841C65.4349 133.477 64.6395 132.58 63.4576 132.58C62.2758 132.58 61.4804 133.477 61.4804 134.841C61.4804 136.193 62.2758 137.091 63.4576 137.091ZM63.4576 136.489C62.5599 136.489 62.1508 135.716 62.1508 134.841C62.1508 133.966 62.5599 133.182 63.4576 133.182C64.3554 133.182 64.7645 133.966 64.7645 134.841C64.7645 135.716 64.3554 136.489 63.4576 136.489Z" fill="black"/>
<path d="M66.4584 137H67.1288V134.239C67.1288 133.648 67.5947 133.216 68.2311 133.216C68.4101 133.216 68.5947 133.25 68.6402 133.261V132.58C68.5635 132.574 68.3873 132.568 68.2879 132.568C67.7652 132.568 67.3106 132.864 67.1515 133.295H67.1061V132.636H66.4584V137Z" fill="black"/>
<path d="M72.5258 133.614C72.3156 132.994 71.844 132.58 70.9804 132.58C70.0599 132.58 69.3781 133.102 69.3781 133.841C69.3781 134.443 69.736 134.847 70.5372 135.034L71.2645 135.205C71.7048 135.307 71.9122 135.517 71.9122 135.818C71.9122 136.193 71.5145 136.5 70.8895 136.5C70.3412 136.5 69.9974 136.264 69.8781 135.795L69.2417 135.955C69.398 136.696 70.0088 137.091 70.9008 137.091C71.915 137.091 72.6054 136.537 72.6054 135.784C72.6054 135.176 72.2247 134.793 71.4463 134.602L70.7985 134.443C70.2815 134.315 70.0485 134.142 70.0485 133.807C70.0485 133.432 70.4463 133.159 70.9804 133.159C71.5656 133.159 71.8071 133.483 71.9235 133.784L72.5258 133.614Z" fill="black"/>
<path d="M24.8618 170.182V176H25.5209V171.58H25.5777L27.3959 176H28.0323L29.8505 171.58H29.9073V176H30.5664V170.182H29.7255L27.7482 175.011H27.68L25.7027 170.182H24.8618Z" fill="black"/>
<path d="M31.8881 176H32.5585V171.636H31.8881V176ZM32.229 170.909C32.4904 170.909 32.7063 170.705 32.7063 170.455C32.7063 170.205 32.4904 170 32.229 170C31.9676 170 31.7517 170.205 31.7517 170.455C31.7517 170.705 31.9676 170.909 32.229 170.909Z" fill="black"/>
<path d="M35.5593 176.091C36.5252 176.091 37.1615 175.5 37.2752 174.727H36.6047C36.4797 175.205 36.082 175.489 35.5593 175.489C34.7638 175.489 34.2524 174.83 34.2524 173.818C34.2524 172.83 34.7752 172.182 35.5593 172.182C36.1502 172.182 36.5024 172.545 36.6047 172.943H37.2752C37.1615 172.125 36.4684 171.58 35.5479 171.58C34.3661 171.58 33.582 172.511 33.582 173.841C33.582 175.148 34.332 176.091 35.5593 176.091Z" fill="black"/>
<path d="M38.2553 176H38.9257V173.239C38.9257 172.648 39.3916 172.216 40.028 172.216C40.207 172.216 40.3916 172.25 40.4371 172.261V171.58C40.3604 171.574 40.1843 171.568 40.0848 171.568C39.5621 171.568 39.1076 171.864 38.9485 172.295H38.903V171.636H38.2553V176Z" fill="black"/>
<path d="M42.8718 176.091C44.0536 176.091 44.849 175.193 44.849 173.841C44.849 172.477 44.0536 171.58 42.8718 171.58C41.6899 171.58 40.8945 172.477 40.8945 173.841C40.8945 175.193 41.6899 176.091 42.8718 176.091ZM42.8718 175.489C41.974 175.489 41.5649 174.716 41.5649 173.841C41.5649 172.966 41.974 172.182 42.8718 172.182C43.7695 172.182 44.1786 172.966 44.1786 173.841C44.1786 174.716 43.7695 175.489 42.8718 175.489Z" fill="black"/>
<path d="M48.9634 172.614C48.7532 171.994 48.2816 171.58 47.4179 171.58C46.4975 171.58 45.8157 172.102 45.8157 172.841C45.8157 173.443 46.1736 173.847 46.9747 174.034L47.702 174.205C48.1424 174.307 48.3497 174.517 48.3497 174.818C48.3497 175.193 47.952 175.5 47.327 175.5C46.7787 175.5 46.435 175.264 46.3157 174.795L45.6793 174.955C45.8355 175.696 46.4463 176.091 47.3384 176.091C48.3526 176.091 49.0429 175.537 49.0429 174.784C49.0429 174.176 48.6622 173.793 47.8838 173.602L47.2361 173.443C46.7191 173.315 46.4861 173.142 46.4861 172.807C46.4861 172.432 46.8838 172.159 47.4179 172.159C48.0032 172.159 48.2446 172.483 48.3611 172.784L48.9634 172.614Z" fill="black"/>
<path d="M51.8249 176.091C53.0067 176.091 53.8022 175.193 53.8022 173.841C53.8022 172.477 53.0067 171.58 51.8249 171.58C50.6431 171.58 49.8476 172.477 49.8476 173.841C49.8476 175.193 50.6431 176.091 51.8249 176.091ZM51.8249 175.489C50.9272 175.489 50.5181 174.716 50.5181 173.841C50.5181 172.966 50.9272 172.182 51.8249 172.182C52.7226 172.182 53.1317 172.966 53.1317 173.841C53.1317 174.716 52.7226 175.489 51.8249 175.489Z" fill="black"/>
<path d="M56.7688 171.636H55.7915V171.193C55.7915 170.761 55.9733 170.534 56.4165 170.534C56.6097 170.534 56.7233 170.58 56.7915 170.602L56.9847 170.023C56.8824 169.977 56.6779 169.909 56.3483 169.909C55.7233 169.909 55.121 170.284 55.121 171.034V171.636H54.4165V172.205H55.121V176H55.7915V172.205H56.7688V171.636Z" fill="black"/>
<path d="M59.6061 171.636H58.6743V170.591H58.0039V171.636H57.3448V172.205H58.0039V174.932C58.0039 175.693 58.6175 176.057 59.1857 176.057C59.4357 176.057 59.5948 176.011 59.6857 175.977L59.5493 175.375C59.4925 175.386 59.4016 175.409 59.2539 175.409C58.9584 175.409 58.6743 175.318 58.6743 174.75V172.205H59.6061V171.636Z" fill="black"/>
<path d="M28.1906 212H28.9179C28.702 210.875 27.7588 210.102 26.5315 210.102C25.0401 210.102 23.9861 211.25 23.9861 213.091C23.9861 214.932 25.0315 216.08 26.577 216.08C27.9634 216.08 28.952 215.156 28.952 213.716V213.091H26.7361V213.716H28.2702C28.2503 214.761 27.5628 215.42 26.577 215.42C25.4974 215.42 24.6679 214.602 24.6679 213.091C24.6679 211.58 25.4974 210.761 26.5315 210.761C27.3724 210.761 27.9435 211.236 28.1906 212Z" fill="black"/>
<path d="M30.1587 216H33.7155V215.375H30.8632V213.398H33.4882V212.773H30.8632V210.807H33.67V210.182H30.1587V216Z" fill="black"/>
<path d="M37.099 216H37.7695V213.273C37.7695 212.634 38.2354 212.182 38.7581 212.182C39.2666 212.182 39.6217 212.514 39.6217 213.011V216H40.3036V213.159C40.3036 212.597 40.6558 212.182 41.2695 212.182C41.7467 212.182 42.1558 212.435 42.1558 213.08V216H42.8263V213.08C42.8263 212.054 42.2751 211.58 41.4967 211.58C40.8717 211.58 40.4144 211.866 40.1899 212.318H40.1445C39.9286 211.852 39.5479 211.58 38.974 211.58C38.4058 211.58 37.9854 211.852 37.8036 212.318H37.7467V211.636H37.099V216Z" fill="black"/>
<path d="M45.8249 216.091C47.0067 216.091 47.8021 215.193 47.8021 213.841C47.8021 212.477 47.0067 211.58 45.8249 211.58C44.643 211.58 43.8476 212.477 43.8476 213.841C43.8476 215.193 44.643 216.091 45.8249 216.091ZM45.8249 215.489C44.9271 215.489 44.518 214.716 44.518 213.841C44.518 212.966 44.9271 212.182 45.8249 212.182C46.7226 212.182 47.1317 212.966 47.1317 213.841C47.1317 214.716 46.7226 215.489 45.8249 215.489Z" fill="black"/>
<path d="M50.7233 211.636H49.7915V210.591H49.121V211.636H48.4619V212.205H49.121V214.932C49.121 215.693 49.7347 216.057 50.3028 216.057C50.5528 216.057 50.7119 216.011 50.8028 215.977L50.6665 215.375C50.6097 215.386 50.5188 215.409 50.371 215.409C50.0756 215.409 49.7915 215.318 49.7915 214.75V212.205H50.7233V211.636Z" fill="black"/>
<path d="M53.4577 216.091C54.6395 216.091 55.4349 215.193 55.4349 213.841C55.4349 212.477 54.6395 211.58 53.4577 211.58C52.2759 211.58 51.4804 212.477 51.4804 213.841C51.4804 215.193 52.2759 216.091 53.4577 216.091ZM53.4577 215.489C52.5599 215.489 52.1509 214.716 52.1509 213.841C52.1509 212.966 52.5599 212.182 53.4577 212.182C54.3554 212.182 54.7645 212.966 54.7645 213.841C54.7645 214.716 54.3554 215.489 53.4577 215.489Z" fill="black"/>
<path d="M56.4584 216H57.1288V213.239C57.1288 212.648 57.5947 212.216 58.2311 212.216C58.4101 212.216 58.5947 212.25 58.6402 212.261V211.58C58.5635 211.574 58.3874 211.568 58.2879 211.568C57.7652 211.568 57.3107 211.864 57.1516 212.295H57.1061V211.636H56.4584V216Z" fill="black"/>
<path d="M62.5259 212.614C62.3156 211.994 61.844 211.58 60.9804 211.58C60.0599 211.58 59.3781 212.102 59.3781 212.841C59.3781 213.443 59.7361 213.847 60.5372 214.034L61.2645 214.205C61.7048 214.307 61.9122 214.517 61.9122 214.818C61.9122 215.193 61.5145 215.5 60.8895 215.5C60.3412 215.5 59.9975 215.264 59.8781 214.795L59.2418 214.955C59.398 215.696 60.0088 216.091 60.9009 216.091C61.9151 216.091 62.6054 215.537 62.6054 214.784C62.6054 214.176 62.2247 213.793 61.4463 213.602L60.7986 213.443C60.2815 213.315 60.0486 213.142 60.0486 212.807C60.0486 212.432 60.4463 212.159 60.9804 212.159C61.5656 212.159 61.8071 212.483 61.9236 212.784L62.5259 212.614Z" fill="black"/>
<rect x="95" y="86" width="40" height="6" rx="3" fill="#E4E4E4"/>
<rect x="95" y="126" width="40" height="6" rx="3" fill="#E4E4E4"/>
<rect x="95" y="166" width="40" height="6" rx="3" fill="#E4E4E4"/>
<rect x="95" y="206" width="40" height="6" rx="3" fill="#E4E4E4"/>
<rect x="155" y="86" width="40" height="6" rx="3" fill="#E4E4E4"/>
<rect x="155" y="126" width="40" height="6" rx="3" fill="#E4E4E4"/>
<rect x="155" y="166" width="40" height="6" rx="3" fill="#E4E4E4"/>
<rect x="155" y="206" width="40" height="6" rx="3" fill="#E4E4E4"/>
<line x1="21.9974" y1="72.5" x2="211.997" y2="71.5155" stroke="#EAEAEA"/>
<line x1="21.9974" y1="106.5" x2="211.997" y2="105.516" stroke="#EAEAEA"/>
<line x1="21.9974" y1="146.5" x2="211.997" y2="145.516" stroke="#EAEAEA"/>
<line x1="21.9974" y1="186.5" x2="211.997" y2="185.516" stroke="#EAEAEA"/>
<line x1="21.9974" y1="226.5" x2="211.997" y2="225.516" stroke="#EAEAEA"/>
<path d="M79.0175 24.432C79.0175 25.164 78.8495 25.836 78.5135 26.448C78.1775 27.048 77.6615 27.534 76.9655 27.906C76.2695 28.278 75.4055 28.464 74.3735 28.464H72.4655V33H69.3875V20.364H74.3735C75.3815 20.364 76.2335 20.538 76.9295 20.886C77.6255 21.234 78.1475 21.714 78.4955 22.326C78.8435 22.938 79.0175 23.64 79.0175 24.432ZM74.1395 26.016C74.7275 26.016 75.1655 25.878 75.4535 25.602C75.7415 25.326 75.8855 24.936 75.8855 24.432C75.8855 23.928 75.7415 23.538 75.4535 23.262C75.1655 22.986 74.7275 22.848 74.1395 22.848H72.4655V26.016H74.1395ZM83.6979 24.63C84.0579 24.078 84.5079 23.646 85.0479 23.334C85.5879 23.01 86.1879 22.848 86.8479 22.848V26.106H86.0019C85.2339 26.106 84.6579 26.274 84.2739 26.61C83.8899 26.934 83.6979 27.51 83.6979 28.338V33H80.6199V22.956H83.6979V24.63ZM89.8671 21.912C89.3271 21.912 88.8831 21.756 88.5351 21.444C88.1991 21.12 88.0311 20.724 88.0311 20.256C88.0311 19.776 88.1991 19.38 88.5351 19.068C88.8831 18.744 89.3271 18.582 89.8671 18.582C90.3951 18.582 90.8271 18.744 91.1631 19.068C91.5111 19.38 91.6851 19.776 91.6851 20.256C91.6851 20.724 91.5111 21.12 91.1631 21.444C90.8271 21.756 90.3951 21.912 89.8671 21.912ZM91.3971 22.956V33H88.3191V22.956H91.3971ZM93.0157 27.978C93.0157 26.934 93.2257 26.022 93.6457 25.242C94.0777 24.462 94.6717 23.862 95.4277 23.442C96.1957 23.022 97.0717 22.812 98.0557 22.812C99.3157 22.812 100.366 23.142 101.206 23.802C102.058 24.462 102.616 25.392 102.88 26.592H99.6037C99.3277 25.824 98.7937 25.44 98.0017 25.44C97.4377 25.44 96.9877 25.662 96.6517 26.106C96.3157 26.538 96.1477 27.162 96.1477 27.978C96.1477 28.794 96.3157 29.424 96.6517 29.868C96.9877 30.3 97.4377 30.516 98.0017 30.516C98.7937 30.516 99.3277 30.132 99.6037 29.364H102.88C102.616 30.54 102.058 31.464 101.206 32.136C100.354 32.808 99.3037 33.144 98.0557 33.144C97.0717 33.144 96.1957 32.934 95.4277 32.514C94.6717 32.094 94.0777 31.494 93.6457 30.714C93.2257 29.934 93.0157 29.022 93.0157 27.978ZM113.994 27.816C113.994 28.104 113.976 28.404 113.94 28.716H106.974C107.022 29.34 107.22 29.82 107.568 30.156C107.928 30.48 108.366 30.642 108.882 30.642C109.65 30.642 110.184 30.318 110.484 29.67H113.76C113.592 30.33 113.286 30.924 112.842 31.452C112.41 31.98 111.864 32.394 111.204 32.694C110.544 32.994 109.806 33.144 108.99 33.144C108.006 33.144 107.13 32.934 106.362 32.514C105.594 32.094 104.994 31.494 104.562 30.714C104.13 29.934 103.914 29.022 103.914 27.978C103.914 26.934 104.124 26.022 104.544 25.242C104.976 24.462 105.576 23.862 106.344 23.442C107.112 23.022 107.994 22.812 108.99 22.812C109.962 22.812 110.826 23.016 111.582 23.424C112.338 23.832 112.926 24.414 113.346 25.17C113.778 25.926 113.994 26.808 113.994 27.816ZM110.844 27.006C110.844 26.478 110.664 26.058 110.304 25.746C109.944 25.434 109.494 25.278 108.954 25.278C108.438 25.278 108 25.428 107.64 25.728C107.292 26.028 107.076 26.454 106.992 27.006H110.844ZM127.298 30.768H122.582L121.826 33H118.604L123.176 20.364H126.74L131.312 33H128.054L127.298 30.768ZM126.506 28.392L124.94 23.766L123.392 28.392H126.506ZM135.782 19.68V33H132.704V19.68H135.782ZM147.48 27.816C147.48 28.104 147.462 28.404 147.426 28.716H140.46C140.508 29.34 140.706 29.82 141.054 30.156C141.414 30.48 141.852 30.642 142.368 30.642C143.136 30.642 143.67 30.318 143.97 29.67H147.246C147.078 30.33 146.772 30.924 146.328 31.452C145.896 31.98 145.35 32.394 144.69 32.694C144.03 32.994 143.292 33.144 142.476 33.144C141.492 33.144 140.616 32.934 139.848 32.514C139.08 32.094 138.48 31.494 138.048 30.714C137.616 29.934 137.4 29.022 137.4 27.978C137.4 26.934 137.61 26.022 138.03 25.242C138.462 24.462 139.062 23.862 139.83 23.442C140.598 23.022 141.48 22.812 142.476 22.812C143.448 22.812 144.312 23.016 145.068 23.424C145.824 23.832 146.412 24.414 146.832 25.17C147.264 25.926 147.48 26.808 147.48 27.816ZM144.33 27.006C144.33 26.478 144.15 26.058 143.79 25.746C143.43 25.434 142.98 25.278 142.44 25.278C141.924 25.278 141.486 25.428 141.126 25.728C140.778 26.028 140.562 26.454 140.478 27.006H144.33ZM152.182 24.63C152.542 24.078 152.992 23.646 153.532 23.334C154.072 23.01 154.672 22.848 155.332 22.848V26.106H154.486C153.718 26.106 153.142 26.274 152.758 26.61C152.374 26.934 152.182 27.51 152.182 28.338V33H149.104V22.956H152.182V24.63ZM162.402 30.39V33H160.836C159.72 33 158.85 32.73 158.226 32.19C157.602 31.638 157.29 30.744 157.29 29.508V25.512H156.066V22.956H157.29V20.508H160.368V22.956H162.384V25.512H160.368V29.544C160.368 29.844 160.44 30.06 160.584 30.192C160.728 30.324 160.968 30.39 161.304 30.39H162.402Z" fill="black"/>
<defs>
<filter id="filter0_d" x="0" y="0" width="236" height="305" filterUnits="userSpaceOnUse" color-interpolation-filters="sRGB">
<feFlood flood-opacity="0" result="BackgroundImageFix"/>
<feColorMatrix in="SourceAlpha" type="matrix" values="0 0 0 0 0 0 0 0 0 0 0 0 0 0 0 0 0 0 127 0"/>
<feMorphology radius="2" operator="dilate" in="SourceAlpha" result="effect1_dropShadow"/>
<feOffset dy="4"/>
<feGaussianBlur stdDeviation="2"/>
<feColorMatrix type="matrix" values="0 0 0 0 0 0 0 0 0 0 0 0 0 0 0 0 0 0 0.04 0"/>
<feBlend mode="normal" in2="BackgroundImageFix" result="effect1_dropShadow"/>
<feBlend mode="normal" in="SourceGraphic" in2="effect1_dropShadow" result="shape"/>
</filter>
</defs>
</svg>
