<svg width="236" height="305" viewBox="0 0 236 305" fill="none" xmlns="http://www.w3.org/2000/svg">
<rect width="236" height="305" fill="#282731"/>
<rect width="360" height="640" transform="translate(-67 -162)" fill="white"/>
<g filter="url(#filter0_d)">
<rect x="6" y="2" width="224" height="293" rx="10" fill="white"/>
<rect x="6.5" y="2.5" width="223" height="292" rx="9.5" stroke="#E3E3E3"/>
</g>
<path d="M25.3694 120L26.037 118.075H28.8779L29.542 120H30.7068L28.0896 112.727H26.8218L24.2046 120H25.3694ZM26.3566 117.152L27.4291 114.048H27.4859L28.5583 117.152H26.3566Z" fill="black"/>
<path d="M32.3714 120L33.039 118.075H35.8799L36.5439 120H37.7087L35.0915 112.727H33.8238L31.2066 120H32.3714ZM33.3586 117.152L34.431 114.048H34.4878L35.5603 117.152H33.3586Z" fill="black"/>
<path d="M38.759 120H39.8563V117.443H41.3477C43.0345 117.443 43.8691 116.424 43.8691 115.082C43.8691 113.743 43.0416 112.727 41.3513 112.727H38.759V120ZM39.8563 116.513V113.668H41.2341C42.3208 113.668 42.7647 114.258 42.7647 115.082C42.7647 115.906 42.3208 116.513 41.2483 116.513H39.8563Z" fill="black"/>
<path d="M45.1555 120H49.5482V119.055H46.2528V112.727H45.1555V120Z" fill="black"/>
<path d="M24.4843 150.672H26.7499V157H27.8437V150.672H30.1128V149.727H24.4843V150.672Z" fill="black"/>
<path d="M35.3232 151.638H36.3815C36.3495 150.473 35.3197 149.628 33.8424 149.628C32.3829 149.628 31.2643 150.462 31.2643 151.716C31.2643 152.728 31.9887 153.321 33.157 153.637L34.0164 153.871C34.7941 154.077 35.3943 154.333 35.3943 154.979C35.3943 155.69 34.716 156.158 33.782 156.158C32.9369 156.158 32.2338 155.782 32.1698 154.99H31.069C31.14 156.308 32.1592 157.121 33.7891 157.121C35.4972 157.121 36.4809 156.222 36.4809 154.99C36.4809 153.68 35.3126 153.172 34.3893 152.945L33.6791 152.76C33.1109 152.614 32.3545 152.348 32.358 151.652C32.358 151.034 32.9227 150.576 33.8176 150.576C34.6521 150.576 35.2451 150.967 35.3232 151.638Z" fill="black"/>
<path d="M37.7922 157H42.1849V156.055H38.8895V149.727H37.7922V157Z" fill="black"/>
<path d="M44.4124 157L45.08 155.075H47.9209L48.585 157H49.7497L47.1325 149.727H45.8648L43.2476 157H44.4124ZM45.3996 154.152L46.472 151.048H46.5289L47.6013 154.152H45.3996Z" fill="black"/>
<path d="M25.0168 188.727V196H26.0608V190.734H26.1283L28.2732 195.989H29.1396L31.2845 190.737H31.352V196H32.396V188.727H31.0644L28.749 194.381H28.6638L26.3485 188.727H25.0168Z" fill="black"/>
<path d="M37.958 190.638H39.0162C38.9843 189.473 37.9545 188.628 36.4772 188.628C35.0177 188.628 33.8991 189.462 33.8991 190.716C33.8991 191.728 34.6235 192.321 35.7918 192.637L36.6512 192.871C37.4289 193.077 38.029 193.333 38.029 193.979C38.029 194.69 37.3508 195.158 36.4168 195.158C35.5716 195.158 34.8685 194.782 34.8046 193.99H33.7037C33.7748 195.308 34.7939 196.121 36.4239 196.121C38.132 196.121 39.1157 195.222 39.1157 193.99C39.1157 192.68 37.9474 192.172 37.0241 191.945L36.3138 191.76C35.7456 191.614 34.9893 191.348 34.9928 190.652C34.9928 190.034 35.5574 189.576 36.4523 189.576C37.2868 189.576 37.8799 189.967 37.958 190.638Z" fill="black"/>
<path d="M40.4269 196H41.5242V192.829H44.6137V191.888H41.5242V189.672H44.9369V188.727H40.4269V196Z" fill="black"/>
<path d="M45.9276 189.672H48.1933V196H49.287V189.672H51.5562V188.727H45.9276V189.672Z" fill="black"/>
<path d="M29.2062 231.025H30.3319C30.0869 229.608 28.876 228.628 27.3064 228.628C25.4243 228.628 24.05 230.045 24.05 232.367C24.05 234.668 25.3852 236.099 27.3561 236.099C29.121 236.099 30.3817 234.942 30.3817 233.106V232.278H27.523V233.184H29.3199C29.295 234.356 28.5209 235.098 27.3561 235.098C26.0741 235.098 25.1402 234.129 25.1402 232.36C25.1402 230.599 26.0812 229.629 27.3135 229.629C28.2794 229.629 28.9328 230.162 29.2062 231.025Z" fill="black"/>
<path d="M31.7746 236H36.3769V235.055H32.8719V232.829H36.0963V231.888H32.8719V229.672H36.3342V228.727H31.7746V236Z" fill="black"/>
<path d="M24.7176 132L25.3028 130.352H27.6551L28.2403 132H28.979L26.8426 126.182H26.1153L23.979 132H24.7176ZM25.5244 129.727L26.4562 127.102H26.5017L27.4335 129.727H25.5244Z" fill="black"/>
<path d="M29.7943 133.636H30.4648V131.33H30.5216C30.6693 131.568 30.9534 132.091 31.7943 132.091C32.8852 132.091 33.6466 131.216 33.6466 129.83C33.6466 128.455 32.8852 127.58 31.7829 127.58C30.9307 127.58 30.6693 128.102 30.5216 128.33H30.442V127.636H29.7943V133.636ZM30.4534 129.818C30.4534 128.841 30.8852 128.182 31.7034 128.182C32.5557 128.182 32.9761 128.898 32.9761 129.818C32.9761 130.75 32.5443 131.489 31.7034 131.489C30.8966 131.489 30.4534 130.807 30.4534 129.818Z" fill="black"/>
<path d="M34.6693 133.636H35.3398V131.33H35.3966C35.5443 131.568 35.8284 132.091 36.6693 132.091C37.7602 132.091 38.5216 131.216 38.5216 129.83C38.5216 128.455 37.7602 127.58 36.6579 127.58C35.8057 127.58 35.5443 128.102 35.3966 128.33H35.317V127.636H34.6693V133.636ZM35.3284 129.818C35.3284 128.841 35.7602 128.182 36.5784 128.182C37.4307 128.182 37.8511 128.898 37.8511 129.818C37.8511 130.75 37.4193 131.489 36.5784 131.489C35.7716 131.489 35.3284 130.807 35.3284 129.818Z" fill="black"/>
<path d="M40.2148 126.182H39.5443V132H40.2148V126.182Z" fill="black"/>
<path d="M43.2723 132.091C44.1586 132.091 44.8064 131.648 45.0109 130.989L44.3632 130.807C44.1927 131.261 43.7978 131.489 43.2723 131.489C42.4853 131.489 41.9427 130.98 41.9115 130.045H45.0791V129.761C45.0791 128.136 44.1132 127.58 43.2041 127.58C42.0223 127.58 41.2382 128.511 41.2382 129.852C41.2382 131.193 42.0109 132.091 43.2723 132.091ZM41.9115 129.466C41.9569 128.787 42.4371 128.182 43.2041 128.182C43.9314 128.182 44.3973 128.727 44.3973 129.466H41.9115Z" fill="black"/>
<path d="M49.1444 126.182H48.4399V132H49.1444V126.182Z" fill="black"/>
<path d="M51.1366 129.375C51.1366 128.614 51.6082 128.182 52.2503 128.182C52.8724 128.182 53.2503 128.588 53.2503 129.273V132H53.9207V129.227C53.9207 128.114 53.327 127.58 52.4434 127.58C51.7844 127.58 51.3753 127.875 51.1707 128.318H51.1139V127.636H50.4662V132H51.1366V129.375Z" fill="black"/>
<path d="M56.9186 132.091C57.8845 132.091 58.5209 131.5 58.6345 130.727H57.964C57.839 131.205 57.4413 131.489 56.9186 131.489C56.1231 131.489 55.6118 130.83 55.6118 129.818C55.6118 128.83 56.1345 128.182 56.9186 128.182C57.5095 128.182 57.8618 128.545 57.964 128.943H58.6345C58.5209 128.125 57.8277 127.58 56.9072 127.58C55.7254 127.58 54.9413 128.511 54.9413 129.841C54.9413 131.148 55.6913 132.091 56.9186 132.091Z" fill="black"/>
<path d="M24.7155 163.807H26.545V169H27.2496V163.807H29.0791V163.182H24.7155V163.807Z" fill="black"/>
<path d="M31.2723 169.091C32.1587 169.091 32.8064 168.648 33.0109 167.989L32.3632 167.807C32.1927 168.261 31.7979 168.489 31.2723 168.489C30.4854 168.489 29.9427 167.98 29.9115 167.045H33.0791V166.761C33.0791 165.136 32.1132 164.58 31.2041 164.58C30.0223 164.58 29.2382 165.511 29.2382 166.852C29.2382 168.193 30.0109 169.091 31.2723 169.091ZM29.9115 166.466C29.9569 165.787 30.4371 165.182 31.2041 165.182C31.9314 165.182 32.3973 165.727 32.3973 166.466H29.9115Z" fill="black"/>
<path d="M37.1899 165.614C36.9797 164.994 36.5081 164.58 35.6444 164.58C34.724 164.58 34.0422 165.102 34.0422 165.841C34.0422 166.443 34.4001 166.847 35.2013 167.034L35.9285 167.205C36.3689 167.307 36.5763 167.517 36.5763 167.818C36.5763 168.193 36.1785 168.5 35.5535 168.5C35.0052 168.5 34.6615 168.264 34.5422 167.795L33.9058 167.955C34.0621 168.696 34.6729 169.091 35.5649 169.091C36.5791 169.091 37.2694 168.537 37.2694 167.784C37.2694 167.176 36.8888 166.793 36.1104 166.602L35.4626 166.443C34.9456 166.315 34.7126 166.142 34.7126 165.807C34.7126 165.432 35.1104 165.159 35.6444 165.159C36.2297 165.159 36.4712 165.483 36.5876 165.784L37.1899 165.614Z" fill="black"/>
<path d="M38.9491 163.182H38.2787V169H38.9491V163.182Z" fill="black"/>
<path d="M41.4612 169.102C42.2226 169.102 42.6203 168.693 42.7567 168.409H42.7908V169H43.4612V166.125C43.4612 164.739 42.4044 164.58 41.8476 164.58C41.1885 164.58 40.4385 164.807 40.0976 165.602L40.7339 165.83C40.8817 165.511 41.2311 165.17 41.8703 165.17C42.4868 165.17 42.7908 165.497 42.7908 166.057V166.08C42.7908 166.403 42.4612 166.375 41.6658 166.477C40.8561 166.582 39.9726 166.761 39.9726 167.761C39.9726 168.614 40.6317 169.102 41.4612 169.102ZM41.5635 168.5C41.0294 168.5 40.643 168.261 40.643 167.795C40.643 167.284 41.1089 167.125 41.6317 167.057C41.9158 167.023 42.6771 166.943 42.7908 166.807V167.42C42.7908 167.966 42.3589 168.5 41.5635 168.5Z" fill="black"/>
<path d="M47.0258 163.182V169H47.6849V164.58H47.7417L49.5599 169H50.1963L52.0145 164.58H52.0713V169H52.7304V163.182H51.8895L49.9122 168.011H49.844L47.8667 163.182H47.0258Z" fill="black"/>
<path d="M55.8248 169.091C57.0067 169.091 57.8021 168.193 57.8021 166.841C57.8021 165.477 57.0067 164.58 55.8248 164.58C54.643 164.58 53.8476 165.477 53.8476 166.841C53.8476 168.193 54.643 169.091 55.8248 169.091ZM55.8248 168.489C54.9271 168.489 54.518 167.716 54.518 166.841C54.518 165.966 54.9271 165.182 55.8248 165.182C56.7226 165.182 57.1317 165.966 57.1317 166.841C57.1317 167.716 56.7226 168.489 55.8248 168.489Z" fill="black"/>
<path d="M60.7233 164.636H59.7915V163.591H59.121V164.636H58.4619V165.205H59.121V167.932C59.121 168.693 59.7346 169.057 60.3028 169.057C60.5528 169.057 60.7119 169.011 60.8028 168.977L60.6665 168.375C60.6096 168.386 60.5187 168.409 60.371 168.409C60.0756 168.409 59.7915 168.318 59.7915 167.75V165.205H60.7233V164.636Z" fill="black"/>
<path d="M63.4577 169.091C64.6395 169.091 65.4349 168.193 65.4349 166.841C65.4349 165.477 64.6395 164.58 63.4577 164.58C62.2758 164.58 61.4804 165.477 61.4804 166.841C61.4804 168.193 62.2758 169.091 63.4577 169.091ZM63.4577 168.489C62.5599 168.489 62.1508 167.716 62.1508 166.841C62.1508 165.966 62.5599 165.182 63.4577 165.182C64.3554 165.182 64.7645 165.966 64.7645 166.841C64.7645 167.716 64.3554 168.489 63.4577 168.489Z" fill="black"/>
<path d="M66.4584 169H67.1288V166.239C67.1288 165.648 67.5947 165.216 68.2311 165.216C68.4101 165.216 68.5947 165.25 68.6402 165.261V164.58C68.5635 164.574 68.3873 164.568 68.2879 164.568C67.7652 164.568 67.3106 164.864 67.1516 165.295H67.1061V164.636H66.4584V169Z" fill="black"/>
<path d="M72.5258 165.614C72.3156 164.994 71.844 164.58 70.9804 164.58C70.0599 164.58 69.3781 165.102 69.3781 165.841C69.3781 166.443 69.7361 166.847 70.5372 167.034L71.2645 167.205C71.7048 167.307 71.9122 167.517 71.9122 167.818C71.9122 168.193 71.5145 168.5 70.8895 168.5C70.3412 168.5 69.9974 168.264 69.8781 167.795L69.2417 167.955C69.398 168.696 70.0088 169.091 70.9008 169.091C71.915 169.091 72.6054 168.537 72.6054 167.784C72.6054 167.176 72.2247 166.793 71.4463 166.602L70.7986 166.443C70.2815 166.315 70.0486 166.142 70.0486 165.807C70.0486 165.432 70.4463 165.159 70.9804 165.159C71.5656 165.159 71.8071 165.483 71.9236 165.784L72.5258 165.614Z" fill="black"/>
<path d="M24.8618 202.182V208H25.5209V203.58H25.5777L27.3959 208H28.0322L29.8504 203.58H29.9072V208H30.5663V202.182H29.7254L27.7481 207.011H27.68L25.7027 202.182H24.8618Z" fill="black"/>
<path d="M31.888 208H32.5585V203.636H31.888V208ZM32.229 202.909C32.4903 202.909 32.7062 202.705 32.7062 202.455C32.7062 202.205 32.4903 202 32.229 202C31.9676 202 31.7517 202.205 31.7517 202.455C31.7517 202.705 31.9676 202.909 32.229 202.909Z" fill="black"/>
<path d="M35.5592 208.091C36.5251 208.091 37.1615 207.5 37.2751 206.727H36.6047C36.4797 207.205 36.0819 207.489 35.5592 207.489C34.7638 207.489 34.2524 206.83 34.2524 205.818C34.2524 204.83 34.7751 204.182 35.5592 204.182C36.1501 204.182 36.5024 204.545 36.6047 204.943H37.2751C37.1615 204.125 36.4683 203.58 35.5478 203.58C34.366 203.58 33.5819 204.511 33.5819 205.841C33.5819 207.148 34.3319 208.091 35.5592 208.091Z" fill="black"/>
<path d="M38.2552 208H38.9257V205.239C38.9257 204.648 39.3916 204.216 40.028 204.216C40.2069 204.216 40.3916 204.25 40.4371 204.261V203.58C40.3603 203.574 40.1842 203.568 40.0848 203.568C39.5621 203.568 39.1075 203.864 38.9484 204.295H38.903V203.636H38.2552V208Z" fill="black"/>
<path d="M42.8717 208.091C44.0535 208.091 44.849 207.193 44.849 205.841C44.849 204.477 44.0535 203.58 42.8717 203.58C41.6899 203.58 40.8944 204.477 40.8944 205.841C40.8944 207.193 41.6899 208.091 42.8717 208.091ZM42.8717 207.489C41.974 207.489 41.5649 206.716 41.5649 205.841C41.5649 204.966 41.974 204.182 42.8717 204.182C43.7694 204.182 44.1785 204.966 44.1785 205.841C44.1785 206.716 43.7694 207.489 42.8717 207.489Z" fill="black"/>
<path d="M48.9633 204.614C48.7531 203.994 48.2815 203.58 47.4179 203.58C46.4974 203.58 45.8156 204.102 45.8156 204.841C45.8156 205.443 46.1736 205.847 46.9747 206.034L47.702 206.205C48.1423 206.307 48.3497 206.517 48.3497 206.818C48.3497 207.193 47.952 207.5 47.327 207.5C46.7787 207.5 46.4349 207.264 46.3156 206.795L45.6792 206.955C45.8355 207.696 46.4463 208.091 47.3383 208.091C48.3525 208.091 49.0429 207.537 49.0429 206.784C49.0429 206.176 48.6622 205.793 47.8838 205.602L47.2361 205.443C46.719 205.315 46.4861 205.142 46.4861 204.807C46.4861 204.432 46.8838 204.159 47.4179 204.159C48.0031 204.159 48.2446 204.483 48.3611 204.784L48.9633 204.614Z" fill="black"/>
<path d="M51.8248 208.091C53.0067 208.091 53.8021 207.193 53.8021 205.841C53.8021 204.477 53.0067 203.58 51.8248 203.58C50.643 203.58 49.8476 204.477 49.8476 205.841C49.8476 207.193 50.643 208.091 51.8248 208.091ZM51.8248 207.489C50.9271 207.489 50.518 206.716 50.518 205.841C50.518 204.966 50.9271 204.182 51.8248 204.182C52.7226 204.182 53.1317 204.966 53.1317 205.841C53.1317 206.716 52.7226 207.489 51.8248 207.489Z" fill="black"/>
<path d="M56.7687 203.636H55.7915V203.193C55.7915 202.761 55.9733 202.534 56.4165 202.534C56.6096 202.534 56.7233 202.58 56.7915 202.602L56.9846 202.023C56.8824 201.977 56.6778 201.909 56.3483 201.909C55.7233 201.909 55.121 202.284 55.121 203.034V203.636H54.4165V204.205H55.121V208H55.7915V204.205H56.7687V203.636Z" fill="black"/>
<path d="M59.6061 203.636H58.6743V202.591H58.0038V203.636H57.3447V204.205H58.0038V206.932C58.0038 207.693 58.6175 208.057 59.1856 208.057C59.4356 208.057 59.5947 208.011 59.6856 207.977L59.5493 207.375C59.4925 207.386 59.4015 207.409 59.2538 207.409C58.9584 207.409 58.6743 207.318 58.6743 206.75V204.205H59.6061V203.636Z" fill="black"/>
<path d="M28.1906 244H28.9179C28.702 242.875 27.7588 242.102 26.5315 242.102C25.04 242.102 23.9861 243.25 23.9861 245.091C23.9861 246.932 25.0315 248.08 26.577 248.08C27.9633 248.08 28.952 247.156 28.952 245.716V245.091H26.7361V245.716H28.2702C28.2503 246.761 27.5628 247.42 26.577 247.42C25.4974 247.42 24.6679 246.602 24.6679 245.091C24.6679 243.58 25.4974 242.761 26.5315 242.761C27.3724 242.761 27.9434 243.236 28.1906 244Z" fill="black"/>
<path d="M30.1586 248H33.7155V247.375H30.8632V245.398H33.4882V244.773H30.8632V242.807H33.67V242.182H30.1586V248Z" fill="black"/>
<path d="M37.099 248H37.7694V245.273C37.7694 244.634 38.2354 244.182 38.7581 244.182C39.2666 244.182 39.6217 244.514 39.6217 245.011V248H40.3035V245.159C40.3035 244.597 40.6558 244.182 41.2694 244.182C41.7467 244.182 42.1558 244.435 42.1558 245.08V248H42.8263V245.08C42.8263 244.054 42.2751 243.58 41.4967 243.58C40.8717 243.58 40.4143 243.866 40.1899 244.318H40.1444C39.9285 243.852 39.5478 243.58 38.974 243.58C38.4058 243.58 37.9854 243.852 37.8035 244.318H37.7467V243.636H37.099V248Z" fill="black"/>
<path d="M45.8248 248.091C47.0067 248.091 47.8021 247.193 47.8021 245.841C47.8021 244.477 47.0067 243.58 45.8248 243.58C44.643 243.58 43.8476 244.477 43.8476 245.841C43.8476 247.193 44.643 248.091 45.8248 248.091ZM45.8248 247.489C44.9271 247.489 44.518 246.716 44.518 245.841C44.518 244.966 44.9271 244.182 45.8248 244.182C46.7226 244.182 47.1317 244.966 47.1317 245.841C47.1317 246.716 46.7226 247.489 45.8248 247.489Z" fill="black"/>
<path d="M50.7233 243.636H49.7915V242.591H49.121V243.636H48.4619V244.205H49.121V246.932C49.121 247.693 49.7346 248.057 50.3028 248.057C50.5528 248.057 50.7119 248.011 50.8028 247.977L50.6665 247.375C50.6096 247.386 50.5187 247.409 50.371 247.409C50.0756 247.409 49.7915 247.318 49.7915 246.75V244.205H50.7233V243.636Z" fill="black"/>
<path d="M53.4577 248.091C54.6395 248.091 55.4349 247.193 55.4349 245.841C55.4349 244.477 54.6395 243.58 53.4577 243.58C52.2758 243.58 51.4804 244.477 51.4804 245.841C51.4804 247.193 52.2758 248.091 53.4577 248.091ZM53.4577 247.489C52.5599 247.489 52.1508 246.716 52.1508 245.841C52.1508 244.966 52.5599 244.182 53.4577 244.182C54.3554 244.182 54.7645 244.966 54.7645 245.841C54.7645 246.716 54.3554 247.489 53.4577 247.489Z" fill="black"/>
<path d="M56.4584 248H57.1288V245.239C57.1288 244.648 57.5947 244.216 58.2311 244.216C58.4101 244.216 58.5947 244.25 58.6402 244.261V243.58C58.5635 243.574 58.3873 243.568 58.2879 243.568C57.7652 243.568 57.3106 243.864 57.1515 244.295H57.1061V243.636H56.4584V248Z" fill="black"/>
<path d="M62.5258 244.614C62.3156 243.994 61.844 243.58 60.9804 243.58C60.0599 243.58 59.3781 244.102 59.3781 244.841C59.3781 245.443 59.7361 245.847 60.5372 246.034L61.2645 246.205C61.7048 246.307 61.9122 246.517 61.9122 246.818C61.9122 247.193 61.5145 247.5 60.8895 247.5C60.3412 247.5 59.9974 247.264 59.8781 246.795L59.2417 246.955C59.398 247.696 60.0088 248.091 60.9008 248.091C61.915 248.091 62.6054 247.537 62.6054 246.784C62.6054 246.176 62.2247 245.793 61.4463 245.602L60.7986 245.443C60.2815 245.315 60.0486 245.142 60.0486 244.807C60.0486 244.432 60.4463 244.159 60.9804 244.159C61.5656 244.159 61.8071 244.483 61.9236 244.784L62.5258 244.614Z" fill="black"/>
<path d="M83.4307 24.768V36H80.6947V29.264L78.1827 36H75.9747L73.4467 29.248V36H70.7107V24.768H73.9427L77.0947 32.544L80.2147 24.768H83.4307Z" fill="black"/>
<path d="M94.5182 27.072L88.9182 40.24H85.9742L88.0222 35.696L84.3902 27.072H87.4462L89.5102 32.656L91.5582 27.072H94.5182Z" fill="black"/>
<path d="M107.458 28.384C107.458 29.0347 107.309 29.632 107.01 30.176C106.712 30.7093 106.253 31.1413 105.634 31.472C105.016 31.8027 104.248 31.968 103.33 31.968H101.634V36H98.8982V24.768H103.33C104.226 24.768 104.984 24.9227 105.602 25.232C106.221 25.5413 106.685 25.968 106.994 26.512C107.304 27.056 107.458 27.68 107.458 28.384ZM103.122 29.792C103.645 29.792 104.034 29.6693 104.29 29.424C104.546 29.1787 104.674 28.832 104.674 28.384C104.674 27.936 104.546 27.5893 104.29 27.344C104.034 27.0987 103.645 26.976 103.122 26.976H101.634V29.792H103.122Z" fill="black"/>
<path d="M112.947 36.128C112.072 36.128 111.283 35.9413 110.579 35.568C109.885 35.1947 109.336 34.6613 108.931 33.968C108.536 33.2747 108.339 32.464 108.339 31.536C108.339 30.6187 108.541 29.8133 108.947 29.12C109.352 28.416 109.907 27.8773 110.611 27.504C111.315 27.1307 112.104 26.944 112.979 26.944C113.853 26.944 114.643 27.1307 115.347 27.504C116.051 27.8773 116.605 28.416 117.011 29.12C117.416 29.8133 117.619 30.6187 117.619 31.536C117.619 32.4533 117.411 33.264 116.995 33.968C116.589 34.6613 116.029 35.1947 115.315 35.568C114.611 35.9413 113.821 36.128 112.947 36.128ZM112.947 33.76C113.469 33.76 113.912 33.568 114.275 33.184C114.648 32.8 114.835 32.2507 114.835 31.536C114.835 30.8213 114.653 30.272 114.291 29.888C113.939 29.504 113.501 29.312 112.979 29.312C112.445 29.312 112.003 29.504 111.651 29.888C111.299 30.2613 111.123 30.8107 111.123 31.536C111.123 32.2507 111.293 32.8 111.635 33.184C111.987 33.568 112.424 33.76 112.947 33.76Z" fill="black"/>
<path d="M121.806 28.56C122.126 28.0693 122.526 27.6853 123.006 27.408C123.486 27.12 124.019 26.976 124.606 26.976V29.872H123.854C123.171 29.872 122.659 30.0213 122.318 30.32C121.977 30.608 121.806 31.12 121.806 31.856V36H119.07V27.072H121.806V28.56Z" fill="black"/>
<path d="M130.89 33.68V36H129.498C128.506 36 127.733 35.76 127.178 35.28C126.623 34.7893 126.346 33.9947 126.346 32.896V29.344H125.258V27.072H126.346V24.896H129.082V27.072H130.874V29.344H129.082V32.928C129.082 33.1947 129.146 33.3867 129.274 33.504C129.402 33.6213 129.615 33.68 129.914 33.68H130.89Z" fill="black"/>
<path d="M136.894 29.344H135.422V36H132.686V29.344H131.694V27.072H132.686V26.816C132.686 25.7173 133.001 24.8853 133.63 24.32C134.259 23.744 135.182 23.456 136.398 23.456C136.601 23.456 136.75 23.4613 136.846 23.472V25.792C136.323 25.76 135.955 25.8347 135.742 26.016C135.529 26.1973 135.422 26.5227 135.422 26.992V27.072H136.894V29.344Z" fill="black"/>
<path d="M142.243 36.128C141.369 36.128 140.58 35.9413 139.876 35.568C139.182 35.1947 138.633 34.6613 138.228 33.968C137.833 33.2747 137.635 32.464 137.635 31.536C137.635 30.6187 137.838 29.8133 138.243 29.12C138.649 28.416 139.203 27.8773 139.908 27.504C140.612 27.1307 141.401 26.944 142.275 26.944C143.15 26.944 143.939 27.1307 144.644 27.504C145.348 27.8773 145.902 28.416 146.308 29.12C146.713 29.8133 146.915 30.6187 146.915 31.536C146.915 32.4533 146.708 33.264 146.292 33.968C145.886 34.6613 145.326 35.1947 144.612 35.568C143.908 35.9413 143.118 36.128 142.243 36.128ZM142.243 33.76C142.766 33.76 143.209 33.568 143.572 33.184C143.945 32.8 144.132 32.2507 144.132 31.536C144.132 30.8213 143.95 30.272 143.588 29.888C143.236 29.504 142.798 29.312 142.275 29.312C141.742 29.312 141.299 29.504 140.948 29.888C140.596 30.2613 140.42 30.8107 140.42 31.536C140.42 32.2507 140.59 32.8 140.932 33.184C141.284 33.568 141.721 33.76 142.243 33.76Z" fill="black"/>
<path d="M151.103 24.16V36H148.367V24.16H151.103Z" fill="black"/>
<path d="M154.462 26.144C153.982 26.144 153.587 26.0053 153.278 25.728C152.979 25.44 152.83 25.088 152.83 24.672C152.83 24.2453 152.979 23.8933 153.278 23.616C153.587 23.328 153.982 23.184 154.462 23.184C154.931 23.184 155.315 23.328 155.614 23.616C155.923 23.8933 156.078 24.2453 156.078 24.672C156.078 25.088 155.923 25.44 155.614 25.728C155.315 26.0053 154.931 26.144 154.462 26.144ZM155.822 27.072V36H153.086V27.072H155.822Z" fill="black"/>
<path d="M161.868 36.128C160.994 36.128 160.205 35.9413 159.501 35.568C158.807 35.1947 158.258 34.6613 157.853 33.968C157.458 33.2747 157.26 32.464 157.26 31.536C157.26 30.6187 157.463 29.8133 157.868 29.12C158.274 28.416 158.828 27.8773 159.533 27.504C160.237 27.1307 161.026 26.944 161.9 26.944C162.775 26.944 163.564 27.1307 164.269 27.504C164.973 27.8773 165.527 28.416 165.933 29.12C166.338 29.8133 166.54 30.6187 166.54 31.536C166.54 32.4533 166.333 33.264 165.917 33.968C165.511 34.6613 164.951 35.1947 164.237 35.568C163.533 35.9413 162.743 36.128 161.868 36.128ZM161.868 33.76C162.391 33.76 162.834 33.568 163.197 33.184C163.57 32.8 163.757 32.2507 163.757 31.536C163.757 30.8213 163.575 30.272 163.213 29.888C162.861 29.504 162.423 29.312 161.9 29.312C161.367 29.312 160.924 29.504 160.573 29.888C160.221 30.2613 160.045 30.8107 160.045 31.536C160.045 32.2507 160.215 32.8 160.557 33.184C160.909 33.568 161.346 33.76 161.868 33.76Z" fill="black"/>
<circle cx="37" cy="75" r="15" fill="#E4E4E4"/>
<rect x="61" y="61" width="106" height="6" rx="3" fill="#E4E4E4"/>
<rect x="61" y="78" width="40" height="6" rx="3" fill="#E4E4E4"/>
<rect x="95" y="118" width="40" height="6" rx="3" fill="#E4E4E4"/>
<rect x="95" y="158" width="40" height="6" rx="3" fill="#E4E4E4"/>
<rect x="95" y="198" width="40" height="6" rx="3" fill="#E4E4E4"/>
<rect x="95" y="238" width="40" height="6" rx="3" fill="#E4E4E4"/>
<rect x="155" y="118" width="40" height="6" rx="3" fill="#E4E4E4"/>
<rect x="155" y="158" width="40" height="6" rx="3" fill="#E4E4E4"/>
<rect x="155" y="198" width="40" height="6" rx="3" fill="#E4E4E4"/>
<rect x="155" y="238" width="40" height="6" rx="3" fill="#E4E4E4"/>
<line x1="21.9974" y1="104.5" x2="211.997" y2="103.516" stroke="#EAEAEA"/>
<line x1="21.9974" y1="138.5" x2="211.997" y2="137.516" stroke="#EAEAEA"/>
<line x1="21.9974" y1="178.5" x2="211.997" y2="177.516" stroke="#EAEAEA"/>
<line x1="21.9974" y1="218.5" x2="211.997" y2="217.516" stroke="#EAEAEA"/>
<line x1="21.9974" y1="258.5" x2="211.997" y2="257.516" stroke="#EAEAEA"/>
<defs>
<filter id="filter0_d" x="0" y="0" width="236" height="305" filterUnits="userSpaceOnUse" color-interpolation-filters="sRGB">
<feFlood flood-opacity="0" result="BackgroundImageFix"/>
<feColorMatrix in="SourceAlpha" type="matrix" values="0 0 0 0 0 0 0 0 0 0 0 0 0 0 0 0 0 0 127 0"/>
<feMorphology radius="2" operator="dilate" in="SourceAlpha" result="effect1_dropShadow"/>
<feOffset dy="4"/>
<feGaussianBlur stdDeviation="2"/>
<feColorMatrix type="matrix" values="0 0 0 0 0 0 0 0 0 0 0 0 0 0 0 0 0 0 0.04 0"/>
<feBlend mode="normal" in2="BackgroundImageFix" result="effect1_dropShadow"/>
<feBlend mode="normal" in="SourceGraphic" in2="effect1_dropShadow" result="shape"/>
</filter>
</defs>
</svg>
