<svg width="161" height="93" viewBox="0 0 161 93" fill="none" xmlns="http://www.w3.org/2000/svg">
<rect width="161" height="93" fill="#282731"/>
<rect width="360" height="640" transform="translate(-99 -254)" fill="#3550A3"/>
<path d="M6.80179 77.2962H0.973618V74.1486H16.0888V77.2962H10.2606V92.5151H6.80179V77.2962Z" fill="white"/>
<path d="M18.1814 79.5964L18.4235 81.101C18.7931 80.4787 19.3331 79.9753 19.9798 79.6505C20.6265 79.3256 21.3528 79.1928 22.0726 79.2678C23.2942 79.2467 24.4792 79.6849 25.3931 80.4957L23.9577 83.2801C23.6467 82.9925 23.2818 82.7694 22.884 82.624C22.4861 82.4785 22.0634 82.4135 21.6403 82.4326C21.2029 82.3974 20.7631 82.4588 20.3521 82.6125C19.9411 82.7662 19.569 83.0084 19.262 83.3219C18.955 83.6355 18.7208 84.0127 18.5759 84.4269C18.431 84.8411 18.379 85.282 18.4235 85.7185V92.5325H15.2241V79.5964H18.1814Z" fill="white"/>
<path d="M36.8595 79.5963H39.9378V92.5324H36.9113L36.7557 90.6474C36.2996 91.3416 35.6748 91.9088 34.9398 92.296C34.2049 92.6831 33.3837 92.8775 32.5532 92.861C30.8032 92.7625 29.1581 91.9951 27.9581 90.7175C26.7581 89.4399 26.0951 87.75 26.1062 85.9973C26.1173 84.2446 26.8017 82.5632 28.0178 81.301C29.2338 80.0387 30.8886 79.2922 32.6397 79.2158C33.4472 79.1847 34.2494 79.3606 34.9698 79.7269C35.6902 80.0932 36.305 80.6376 36.7557 81.3085L36.8595 79.5963ZM29.0943 86.0471C29.0627 86.5643 29.1395 87.0824 29.3199 87.5682C29.5002 88.054 29.7801 88.4968 30.1416 88.868C30.5031 89.2393 30.9382 89.5309 31.4191 89.7242C31.8999 89.9174 32.4158 90.008 32.9337 89.9902C37.9663 89.9902 37.9663 82.1386 32.9337 82.1386C32.4182 82.1185 31.9041 82.2063 31.4246 82.3966C30.9451 82.5868 30.5106 82.8752 30.1491 83.2432C29.7875 83.6113 29.507 84.0508 29.3253 84.5337C29.1437 85.0165 29.065 85.532 29.0943 86.0471Z" fill="white"/>
<path d="M56.0734 74.2005V92.5324H53.0815L52.874 90.803C52.4139 91.4798 51.7869 92.0264 51.0538 92.3899C50.3206 92.7535 49.506 92.9217 48.6888 92.8783C47.7925 92.9217 46.8972 92.7752 46.0616 92.4482C45.2259 92.1212 44.4689 91.6212 43.8402 90.981C43.2114 90.3408 42.7251 89.5749 42.4132 88.7335C42.1014 87.8921 41.9709 86.9943 42.0305 86.099C41.9456 85.2047 42.0563 84.3026 42.3549 83.4554C42.6535 82.6082 43.1329 81.8361 43.7598 81.1927C44.3867 80.5494 45.1462 80.0501 45.9854 79.7297C46.8246 79.4092 47.7234 79.2752 48.6196 79.3369C49.4401 79.3354 50.25 79.5217 50.9874 79.8814C51.7248 80.2411 52.3701 80.7647 52.874 81.4122V74.2524L56.0734 74.2005ZM45.2299 86.0471C45.1952 86.5555 45.2654 87.0657 45.4361 87.5459C45.6068 88.0261 45.8744 88.4661 46.2222 88.8386C46.5701 89.211 46.9908 89.5079 47.4583 89.711C47.9257 89.914 48.4299 90.0188 48.9396 90.0188C49.4492 90.0188 49.9534 89.914 50.4209 89.711C50.8883 89.5079 51.309 89.211 51.6569 88.8386C52.0048 88.4661 52.2724 88.0261 52.4431 87.5459C52.6138 87.0657 52.6839 86.5555 52.6492 86.0471C52.6609 85.5502 52.572 85.0561 52.3878 84.5945C52.2036 84.133 51.9279 83.7134 51.5773 83.3612C51.2267 83.0089 50.8084 82.7313 50.3477 82.545C49.8869 82.3586 49.3932 82.2675 48.8963 82.2769C48.4018 82.2617 47.9096 82.3496 47.4509 82.535C46.9923 82.7205 46.5773 82.9994 46.2324 83.3541C45.8874 83.7088 45.6202 84.1314 45.4476 84.595C45.275 85.0587 45.2009 85.5532 45.2299 86.0471Z" fill="white"/>
<path d="M61.8667 87.2057C62.0742 88.8141 63.4577 89.9555 65.7233 89.9555C66.9812 89.9801 68.207 89.5572 69.1822 88.7622L71.2229 90.7683C69.7134 92.1587 67.7231 92.9089 65.6714 92.861C64.6899 93.0262 63.6843 92.9777 62.7233 92.7188C61.7622 92.4598 60.8684 91.9966 60.1027 91.3606C59.3371 90.7246 58.7177 89.9309 58.2869 89.0337C57.856 88.1365 57.6239 87.1568 57.6063 86.1617C57.5886 85.1665 57.786 84.1793 58.1848 83.2673C58.5836 82.3554 59.1745 81.5403 59.9172 80.8776C60.6598 80.215 61.5367 79.7204 62.488 79.4276C63.4393 79.1348 64.4425 79.0508 65.4293 79.1812C69.7529 79.1812 72.4681 81.8618 71.9665 87.1884L61.8667 87.2057ZM68.8881 84.5597C68.8351 84.173 68.7061 83.8005 68.5084 83.4639C68.3108 83.1273 68.0484 82.8331 67.7365 82.5984C67.4246 82.3637 67.0693 82.193 66.6911 82.0963C66.313 81.9995 65.9194 81.9786 65.5331 82.0347C64.7309 81.9694 63.9311 82.1858 63.2713 82.6467C62.6116 83.1075 62.1332 83.784 61.9185 84.5597H68.8881Z" fill="white"/>
<path d="M84.7126 77.2962H78.919V74.1486H94.0342V77.2962H88.1715V92.5151H84.7126V77.2962Z" fill="white"/>
<path d="M102.837 79.5964H105.915V92.5325H102.889L102.733 90.6474C102.287 91.352 101.668 91.9313 100.936 92.3307C100.204 92.7301 99.382 92.9364 98.5479 92.9303C96.7979 92.8421 95.1486 92.0849 93.9411 90.8151C92.7336 89.5452 92.0603 87.86 92.0603 86.1077C92.0603 84.3554 92.7336 82.6701 93.9411 81.4003C95.1486 80.1305 96.7979 79.3732 98.5479 79.2851C99.3555 79.2539 100.158 79.4299 100.878 79.7961C101.598 80.1624 102.213 80.7069 102.664 81.3777L102.837 79.5964ZM95.0718 86.0472C95.0401 86.5644 95.117 87.0825 95.2973 87.5683C95.4777 88.0541 95.7576 88.4968 96.1191 88.8681C96.4806 89.2394 96.9157 89.531 97.3965 89.7242C97.8773 89.9175 98.3932 90.0081 98.9111 89.9903C103.944 89.9903 103.944 82.1387 98.9111 82.1387C98.3956 82.1185 97.8816 82.2064 97.402 82.3966C96.9225 82.5869 96.488 82.8753 96.1265 83.2433C95.765 83.6113 95.4844 84.0509 95.3028 84.5338C95.1211 85.0166 95.0425 85.5321 95.0718 86.0472Z" fill="white"/>
<path d="M111.778 74.2005V92.5324H108.596V74.2005H111.778Z" fill="white"/>
<path d="M117.727 74.2005V84.7846L122.068 79.5963H125.907V79.7866L120.719 85.6839L126.72 92.2903V92.5324H122.864L117.814 86.687V92.5324H114.614V74.2005H117.727Z" fill="white"/>
<path d="M131.597 75.9471C131.597 76.447 131.399 76.9265 131.045 77.2801C130.692 77.6336 130.212 77.8322 129.712 77.8322C129.212 77.8322 128.733 77.6336 128.379 77.2801C128.026 76.9265 127.827 76.447 127.827 75.9471C127.827 75.4471 128.026 74.9677 128.379 74.6141C128.733 74.2606 129.212 74.062 129.712 74.062C130.212 74.062 130.692 74.2606 131.045 74.6141C131.399 74.9677 131.597 75.4471 131.597 75.9471ZM128.139 79.5443V92.5323H131.338V79.5443H128.139Z" fill="white"/>
<path d="M136.924 87.2057C137.132 88.8141 138.515 89.9556 140.781 89.9556C142.039 89.9802 143.264 89.5573 144.24 88.7622L146.28 90.7684C144.773 92.165 142.783 92.9216 140.729 92.8783C139.747 93.0435 138.742 92.995 137.781 92.7361C136.82 92.4772 135.926 92.0139 135.16 91.3779C134.395 90.742 133.775 89.9483 133.344 89.051C132.913 88.1538 132.681 87.1742 132.664 86.179C132.646 85.1838 132.843 84.1966 133.242 83.2847C133.641 82.3727 134.232 81.5576 134.975 80.895C135.717 80.2323 136.594 79.7377 137.545 79.4449C138.497 79.1521 139.5 79.0681 140.487 79.1985C144.81 79.1985 147.525 81.8791 147.024 87.2057H136.924ZM143.946 84.5597C143.893 84.173 143.763 83.8006 143.566 83.4639C143.368 83.1273 143.106 82.8332 142.794 82.5984C142.482 82.3637 142.127 82.1931 141.749 82.0963C141.37 81.9996 140.977 81.9787 140.59 82.0348C139.788 81.9694 138.989 82.1858 138.329 82.6467C137.669 83.1076 137.191 83.7841 136.976 84.5597H143.946Z" fill="white"/>
<path d="M157.936 83.0379C157.508 82.6408 157.003 82.3337 156.454 82.1347C155.904 81.9357 155.321 81.8488 154.737 81.8791C153.215 81.8791 152.368 82.3461 152.368 83.1762C152.368 84.0063 153.129 84.4733 154.789 84.5771C157.227 84.75 160.323 85.2861 160.323 88.7277C160.323 91.0105 158.455 92.9821 154.754 92.9821C153.651 93.0571 152.544 92.8884 151.513 92.4879C150.482 92.0874 149.551 91.4649 148.788 90.6646L150.362 88.3991C151.604 89.4629 153.171 90.0728 154.806 90.1285C156.017 90.1285 157.141 89.5232 157.141 88.5893C157.141 87.6554 156.415 87.3268 154.581 87.2231C152.143 87.0328 149.22 86.1335 149.22 83.2108C149.22 80.2881 152.316 79.1639 154.685 79.1639C155.597 79.1057 156.511 79.2285 157.374 79.5254C158.238 79.8222 159.035 80.2871 159.718 80.8934L157.936 83.0379Z" fill="white"/>
<path d="M63.1296 40.079V55.6439C65.2453 55.23 67.391 54.9872 69.5457 54.9175H81.842V34.9426C75.8147 37.3445 69.5385 39.0673 63.1296 40.079Z" fill="white"/>
<path d="M81.8419 37.191C81.8419 37.191 76.3077 45.2674 63.0776 48.6052V56.3184C63.0776 56.3184 80.3719 56.7508 81.79 55.7996L81.8419 37.191Z" fill="white"/>
<path d="M81.79 40.9783C81.79 40.9783 77.2243 49.6254 63.0776 54.0182V56.5432C63.0776 56.5432 80.3719 56.9755 81.79 56.0243V40.9783Z" fill="white"/>
<path d="M86.4076 33.0403V55.5228H100.641C102.148 55.5241 103.65 55.3559 105.12 55.0213V22.8539C99.1681 26.7496 92.9101 30.1562 86.4076 33.0403Z" fill="white"/>
<path d="M105.12 27.039C105.12 27.039 100.883 35.6862 86.4076 44.1431V56.8024C86.4076 56.8024 103.702 57.2348 105.12 56.2836V27.039Z" fill="white"/>
<path d="M105.12 32.7116C105.12 32.7116 100.883 44.9905 86.4076 53.3782V57.0101C86.4076 57.0101 103.702 57.4424 105.12 56.4912V32.7116Z" fill="white"/>
<path d="M105.12 11.2669V13.7746C103.166 15.2446 101.246 16.6281 99.3264 17.9252V11.2669C99.3264 10.9321 99.4594 10.611 99.6961 10.3742C99.9329 10.1374 100.254 10.0044 100.589 10.0044H103.875C104.207 10.009 104.523 10.144 104.756 10.3802C104.989 10.6165 105.12 10.9351 105.12 11.2669Z" fill="white"/>
<path d="M50.4354 39.9059C50.4354 39.9059 80.5793 36.3433 110.844 11.4396L113.006 15.0887C113.006 15.0887 79.4206 39.9059 50.4354 39.9059Z" fill="white"/>
<path d="M106.365 11.5781C109.85 11.439 113.319 11.0343 116.742 10.3675C115.032 13.4164 113.479 16.5508 112.09 19.7583C112.09 19.7583 110.032 16.2995 110.464 14.3452C108.795 13.98 107.328 12.9899 106.365 11.5781Z" fill="white"/>
<path d="M36.1849 66.0549L39.3671 61.9043C47.063 51.8563 47.4608 37.8998 47.4435 35.2192V22.7327C47.4527 16.8783 49.7824 11.2663 53.9221 7.12655C58.0618 2.98683 63.6739 0.657097 69.5283 0.647949H103.131C108.986 0.657097 114.598 2.98683 118.737 7.12655C122.877 11.2663 125.207 16.8783 125.216 22.7327V35.1846C125.207 41.0391 122.877 46.6511 118.737 50.7908C114.598 54.9305 108.986 57.2603 103.131 57.2694H69.5283C60.9849 57.2694 41.304 64.1871 41.1138 64.3082L36.1849 66.0549ZM69.5283 2.06609C64.0242 2.06609 58.7456 4.25259 54.8536 8.14455C50.9616 12.0365 48.7752 17.3151 48.7752 22.8192V35.3057C48.7752 38.0728 48.3774 52.427 40.3874 62.8382L40.0588 63.2705L40.5777 63.0976C40.7679 63.0111 60.6217 56.0069 69.4591 55.9723H103.131C108.635 55.9723 113.914 53.7859 117.806 49.8939C121.698 46.0019 123.884 40.7233 123.884 35.2192V22.7673C123.884 17.2633 121.698 11.9846 117.806 8.09267C113.914 4.20071 108.635 2.01421 103.131 2.01421L69.5283 2.06609Z" fill="white"/>
<path d="M38.1563 64.6197L39.8857 62.3196C47.7373 52.0986 48.1351 37.9519 48.1351 35.2194V22.733C48.1397 17.0636 50.3927 11.6275 54.3999 7.617C58.4071 3.60652 63.8414 1.34912 69.5108 1.33997H103.131C108.802 1.34911 114.238 3.60593 118.248 7.61592C122.258 11.6259 124.515 17.062 124.524 22.733V35.1848C124.506 40.8498 122.245 46.2771 118.236 50.2796C114.227 54.2821 108.796 56.5342 103.131 56.5433H69.5281C60.881 56.5433 41.079 63.461 40.8715 63.6166L38.1563 64.6197ZM69.5281 3.05211C64.3128 3.06126 59.314 5.13826 55.6279 8.82765C51.9417 12.517 49.8691 17.5177 49.8645 22.733V35.1848C49.8645 37.8482 49.5014 50.7497 42.8085 61.1263C48.4983 59.2239 62.3683 54.8311 69.5281 54.8139H103.131C108.348 54.8047 113.348 52.7283 117.037 49.0394C120.726 45.3505 122.803 40.3498 122.812 35.133V22.6811C122.789 17.4732 120.706 12.4859 117.019 8.8082C113.332 5.1305 108.339 3.06119 103.131 3.05211H69.5281Z" fill="white"/>
</svg>
