<svg width="62" height="36" viewBox="0 0 62 36" fill="none" xmlns="http://www.w3.org/2000/svg">
<rect width="62" height="36" fill="#282731"/>
<rect width="360" height="640" transform="translate(-151 -48)" fill="white"/>
<path d="M2.24191 29.4841H0V28.2733H5.81433V29.4841H3.57242V35.3383H2.24191V29.4841Z" fill="#3550A3"/>
<path d="M6.61928 30.3689L6.71241 30.9477C6.85456 30.7083 7.06231 30.5147 7.31108 30.3897C7.55984 30.2647 7.83921 30.2137 8.1161 30.2425C8.586 30.2344 9.04182 30.403 9.39339 30.7148L8.84123 31.7859C8.72162 31.6753 8.58122 31.5895 8.42819 31.5335C8.27517 31.4776 8.11256 31.4526 7.94979 31.4599C7.78154 31.4464 7.61238 31.47 7.45428 31.5291C7.29618 31.5882 7.15302 31.6814 7.03495 31.802C6.91687 31.9226 6.82677 32.0677 6.77103 32.2271C6.71529 32.3864 6.69528 32.556 6.71241 32.7239V35.345H5.48169V30.3689H6.61928Z" fill="#3550A3"/>
<path d="M13.8041 30.3689H14.9882V35.345H13.824L13.7642 34.6199C13.5887 34.8869 13.3484 35.1051 13.0657 35.254C12.783 35.403 12.4671 35.4777 12.1476 35.4714C11.4744 35.4335 10.8416 35.1383 10.38 34.6468C9.91842 34.1554 9.66338 33.5054 9.66766 32.8311C9.67193 32.1569 9.93519 31.5102 10.403 31.0246C10.8708 30.5391 11.5073 30.2519 12.1809 30.2225C12.4915 30.2105 12.8001 30.2782 13.0772 30.4191C13.3543 30.56 13.5908 30.7694 13.7642 31.0275L13.8041 30.3689ZM10.8171 32.8503C10.8049 33.0492 10.8345 33.2486 10.9039 33.4354C10.9732 33.6223 11.0809 33.7926 11.22 33.9354C11.359 34.0782 11.5264 34.1904 11.7113 34.2647C11.8963 34.3391 12.0947 34.3739 12.294 34.3671C14.2299 34.3671 14.2299 31.3468 12.294 31.3468C12.0957 31.3391 11.8979 31.3729 11.7135 31.446C11.529 31.5192 11.3619 31.6302 11.2228 31.7717C11.0838 31.9133 10.9758 32.0824 10.906 32.2681C10.8361 32.4539 10.8058 32.6522 10.8171 32.8503Z" fill="#3550A3"/>
<path d="M21.1951 28.2933V35.345H20.0442L19.9644 34.6797C19.7874 34.9401 19.5463 35.1503 19.2642 35.2902C18.9822 35.43 18.6688 35.4947 18.3545 35.478C18.0097 35.4948 17.6653 35.4384 17.3439 35.3126C17.0224 35.1868 16.7312 34.9945 16.4894 34.7482C16.2475 34.502 16.0605 34.2073 15.9405 33.8837C15.8205 33.56 15.7703 33.2147 15.7933 32.8703C15.7606 32.5262 15.8032 32.1793 15.918 31.8534C16.0329 31.5275 16.2173 31.2305 16.4585 30.983C16.6996 30.7355 16.9918 30.5435 17.3146 30.4202C17.6374 30.2969 17.9832 30.2454 18.3279 30.2691C18.6435 30.2685 18.955 30.3402 19.2387 30.4785C19.5223 30.6169 19.7706 30.8183 19.9644 31.0674V28.3133L21.1951 28.2933ZM17.024 32.8503C17.0106 33.0459 17.0376 33.2421 17.1033 33.4268C17.1689 33.6116 17.2719 33.7808 17.4057 33.9241C17.5395 34.0674 17.7013 34.1816 17.8812 34.2597C18.061 34.3378 18.2549 34.3781 18.451 34.3781C18.647 34.3781 18.8409 34.3378 19.0208 34.2597C19.2006 34.1816 19.3624 34.0674 19.4962 33.9241C19.63 33.7808 19.733 33.6116 19.7986 33.4268C19.8643 33.2421 19.8913 33.0459 19.8779 32.8503C19.8824 32.6592 19.8483 32.4691 19.7774 32.2916C19.7065 32.114 19.6005 31.9526 19.4656 31.8171C19.3307 31.6816 19.1698 31.5748 18.9926 31.5031C18.8154 31.4315 18.6255 31.3964 18.4343 31.4C18.2441 31.3942 18.0548 31.428 17.8783 31.4993C17.7019 31.5707 17.5423 31.678 17.4096 31.8144C17.2769 31.9508 17.1741 32.1134 17.1077 32.2917C17.0413 32.4701 17.0128 32.6603 17.024 32.8503Z" fill="#3550A3"/>
<path d="M23.4236 33.296C23.5034 33.9147 24.0356 34.3537 24.9071 34.3537C25.391 34.3632 25.8625 34.2005 26.2376 33.8947L27.0226 34.6664C26.4419 35.2012 25.6763 35.4898 24.8871 35.4714C24.5096 35.5349 24.1227 35.5163 23.7531 35.4167C23.3834 35.3171 23.0395 35.1389 22.745 34.8942C22.4505 34.6496 22.2123 34.3443 22.0465 33.9991C21.8808 33.654 21.7915 33.2772 21.7847 32.8944C21.7779 32.5116 21.8539 32.1318 22.0073 31.781C22.1607 31.4302 22.388 31.1167 22.6737 30.8618C22.9593 30.6069 23.2966 30.4166 23.6626 30.304C24.0285 30.1914 24.4144 30.159 24.794 30.2092C26.4571 30.2092 27.5016 31.2403 27.3087 33.2893L23.4236 33.296ZM26.1245 32.2781C26.1041 32.1294 26.0545 31.9861 25.9784 31.8566C25.9024 31.7271 25.8015 31.614 25.6815 31.5237C25.5615 31.4334 25.4249 31.3678 25.2794 31.3305C25.1339 31.2933 24.9825 31.2853 24.8339 31.3069C24.5253 31.2817 24.2177 31.365 23.9639 31.5422C23.7101 31.7195 23.5261 31.9798 23.4435 32.2781H26.1245Z" fill="#3550A3"/>
<path d="M32.2118 29.4841H29.9832V28.2733H35.7975V29.4841H33.5423V35.3383H32.2118V29.4841Z" fill="#3550A3"/>
<path d="M39.1835 30.3689H40.3677V35.345H39.2035L39.1436 34.6199C38.9719 34.8909 38.734 35.1138 38.4523 35.2674C38.1706 35.421 37.8545 35.5004 37.5337 35.498C36.8605 35.4641 36.2261 35.1728 35.7616 34.6844C35.2971 34.1959 35.0381 33.5476 35.0381 32.8736C35.0381 32.1996 35.2971 31.5513 35.7616 31.0628C36.2261 30.5744 36.8605 30.2831 37.5337 30.2492C37.8443 30.2372 38.1529 30.3049 38.43 30.4458C38.7071 30.5866 38.9436 30.7961 39.117 31.0541L39.1835 30.3689ZM36.1965 32.8503C36.1843 33.0493 36.2139 33.2486 36.2833 33.4355C36.3526 33.6223 36.4603 33.7926 36.5994 33.9355C36.7384 34.0783 36.9058 34.1904 37.0908 34.2648C37.2757 34.3391 37.4742 34.374 37.6734 34.3671C39.6093 34.3671 39.6093 31.3468 37.6734 31.3468C37.4751 31.3391 37.2773 31.3729 37.0929 31.4461C36.9084 31.5193 36.7413 31.6302 36.6022 31.7718C36.4632 31.9133 36.3552 32.0824 36.2854 32.2682C36.2155 32.4539 36.1852 32.6522 36.1965 32.8503Z" fill="#3550A3"/>
<path d="M42.6229 28.2933V35.345H41.3988V28.2933H42.6229Z" fill="#3550A3"/>
<path d="M44.9113 28.2933V32.3647L46.5811 30.3689H48.058V30.4421L46.0622 32.7106L48.3707 35.2519V35.345H46.8871L44.9446 33.0964V35.345H43.7139V28.2933H44.9113Z" fill="#3550A3"/>
<path d="M50.2468 28.9651C50.2468 29.1575 50.1704 29.3419 50.0344 29.4779C49.8984 29.6139 49.714 29.6903 49.5216 29.6903C49.3293 29.6903 49.1449 29.6139 49.0089 29.4779C48.8729 29.3419 48.7965 29.1575 48.7965 28.9651C48.7965 28.7728 48.8729 28.5884 49.0089 28.4524C49.1449 28.3164 49.3293 28.24 49.5216 28.24C49.714 28.24 49.8984 28.3164 50.0344 28.4524C50.1704 28.5884 50.2468 28.7728 50.2468 28.9651ZM48.9163 30.3489V35.3449H50.147V30.3489H48.9163Z" fill="#3550A3"/>
<path d="M52.2958 33.296C52.3756 33.9147 52.9078 34.3538 53.7793 34.3538C54.2632 34.3632 54.7347 34.2006 55.1098 33.8947L55.8948 34.6664C55.3152 35.2037 54.5495 35.4947 53.7593 35.478C53.3818 35.5416 52.9949 35.523 52.6253 35.4233C52.2556 35.3237 51.9117 35.1455 51.6172 34.9009C51.3227 34.6563 51.0845 34.351 50.9187 34.0058C50.753 33.6607 50.6637 33.2838 50.6569 32.901C50.6501 32.5182 50.726 32.1385 50.8795 31.7877C51.0329 31.4369 51.2602 31.1233 51.5459 30.8684C51.8315 30.6135 52.1688 30.4233 52.5348 30.3107C52.9007 30.198 53.2866 30.1657 53.6662 30.2159C55.3293 30.2159 56.3738 31.247 56.1808 33.296H52.2958ZM54.9967 32.2782C54.9763 32.1294 54.9267 31.9861 54.8506 31.8566C54.7746 31.7272 54.6737 31.614 54.5537 31.5237C54.4337 31.4334 54.297 31.3678 54.1516 31.3306C54.0061 31.2934 53.8547 31.2853 53.7061 31.3069C53.3975 31.2817 53.0899 31.365 52.8361 31.5423C52.5823 31.7196 52.3983 31.9798 52.3157 32.2782H54.9967Z" fill="#3550A3"/>
<path d="M60.3786 31.6927C60.2136 31.54 60.0197 31.4219 59.8083 31.3453C59.5969 31.2688 59.3724 31.2354 59.1479 31.247C58.5624 31.247 58.2365 31.4266 58.2365 31.746C58.2365 32.0653 58.5292 32.2449 59.1678 32.2848C60.1058 32.3514 61.2966 32.5576 61.2966 33.8814C61.2966 34.7596 60.5782 35.518 59.1545 35.518C58.73 35.5468 58.3043 35.4819 57.9077 35.3279C57.511 35.1738 57.1531 34.9344 56.8594 34.6265L57.4648 33.755C57.9427 34.1643 58.5456 34.3988 59.1745 34.4203C59.6401 34.4203 60.0726 34.1874 60.0726 33.8282C60.0726 33.469 59.7932 33.3426 59.088 33.3027C58.15 33.2295 57.0257 32.8835 57.0257 31.7593C57.0257 30.635 58.2165 30.2026 59.1279 30.2026C59.4785 30.1802 59.8301 30.2274 60.1624 30.3416C60.4946 30.4558 60.801 30.6346 61.0638 30.8678L60.3786 31.6927Z" fill="#3550A3"/>
<path d="M23.9094 15.1679V21.1551C24.7233 20.996 25.5487 20.9025 26.3775 20.8757H31.1075V13.192C28.789 14.116 26.3747 14.7787 23.9094 15.1679Z" fill="#3550A3"/>
<path d="M31.1074 14.0569C31.1074 14.0569 28.9786 17.1637 23.8894 18.4476V21.4146C23.8894 21.4146 30.542 21.581 31.0875 21.2151L31.1074 14.0569Z" fill="#3550A3"/>
<path d="M31.0875 15.5138C31.0875 15.5138 29.3312 18.8401 23.8894 20.5298V21.5011C23.8894 21.5011 30.542 21.6674 31.0875 21.3015V15.5138Z" fill="#3550A3"/>
<path d="M32.8636 12.4603V21.1086H38.3387C38.9184 21.1091 39.4964 21.0444 40.0617 20.9157V8.54193C37.7722 10.0405 35.365 11.3509 32.8636 12.4603Z" fill="#3550A3"/>
<path d="M40.0617 10.1518C40.0617 10.1518 38.4318 13.4781 32.8636 16.7312V21.6008C32.8636 21.6008 39.5162 21.7671 40.0617 21.4013V10.1518Z" fill="#3550A3"/>
<path d="M40.0617 12.3338C40.0617 12.3338 38.4318 17.0572 32.8636 20.2836V21.6807C32.8636 21.6807 39.5162 21.847 40.0617 21.4811V12.3338Z" fill="#3550A3"/>
<path d="M40.0617 4.08478V5.0494C39.31 5.61486 38.5716 6.14706 37.8331 6.646V4.08478C37.8331 3.95598 37.8843 3.83246 37.9754 3.74138C38.0664 3.65031 38.19 3.59914 38.3188 3.59914H39.5827C39.7104 3.60089 39.8322 3.65282 39.9219 3.74371C40.0115 3.83459 40.0617 3.95713 40.0617 4.08478Z" fill="#3550A3"/>
<path d="M19.0264 15.1013C19.0264 15.1013 30.6218 13.7308 42.2637 4.15117L43.0953 5.55486C43.0953 5.55486 30.176 15.1013 19.0264 15.1013Z" fill="#3550A3"/>
<path d="M40.5408 4.20448C41.8812 4.15098 43.2156 3.9953 44.5323 3.7388C43.8746 4.9116 43.2773 6.11729 42.7428 7.35113C42.7428 7.35113 41.9511 6.02063 42.1174 5.26889C41.4753 5.12838 40.9112 4.74755 40.5408 4.20448Z" fill="#3550A3"/>
<path d="M13.5447 25.1599L14.7687 23.5633C17.7291 19.6982 17.8821 14.3296 17.8755 13.2984V8.49531C17.879 6.24329 18.7752 4.08452 20.3676 2.49211C21.96 0.899691 24.1188 0.00351878 26.3708 0H39.2967C41.5487 0.00351878 43.7075 0.899691 45.2999 2.49211C46.8923 4.08452 47.7885 6.24329 47.792 8.49531V13.2851C47.7885 15.5372 46.8923 17.6959 45.2999 19.2883C43.7075 20.8808 41.5487 21.7769 39.2967 21.7804H26.3708C23.0844 21.7804 15.5138 24.4415 15.4407 24.488L13.5447 25.1599ZM26.3708 0.545514C24.2536 0.545514 22.223 1.38659 20.7259 2.8837C19.2288 4.38082 18.3877 6.41133 18.3877 8.52857V13.3317C18.3877 14.3961 18.2347 19.9177 15.1612 23.9226L15.0348 24.0889L15.2344 24.0224C15.3076 23.9891 22.9447 21.2948 26.3442 21.2815H39.2967C41.4139 21.2815 43.4445 20.4404 44.9416 18.9433C46.4387 17.4462 47.2798 15.4157 47.2798 13.2984V8.50861C47.2798 6.39138 46.4387 4.36086 44.9416 2.86374C43.4445 1.36663 41.4139 0.525557 39.2967 0.525557L26.3708 0.545514Z" fill="#3550A3"/>
<path d="M14.303 24.6079L14.9682 23.7231C17.9885 19.7914 18.1415 14.3496 18.1415 13.2985V8.4954C18.1433 6.31458 19.0099 4.22348 20.5514 2.68078C22.0928 1.13808 24.1832 0.269727 26.364 0.266205H39.2966C41.478 0.269723 43.5691 1.13785 45.1116 2.68036C46.6542 4.22288 47.5223 6.31396 47.5258 8.4954V13.2852C47.5188 15.4644 46.6491 17.552 45.107 19.0917C43.5648 20.6313 41.4757 21.4976 39.2966 21.5011H26.3707C23.0444 21.5011 15.4273 24.1622 15.3474 24.222L14.303 24.6079ZM26.3707 0.924811C24.3645 0.928333 22.4417 1.72728 21.0237 3.14648C19.6058 4.56567 18.8085 6.48925 18.8068 8.4954V13.2852C18.8068 14.3097 18.6671 19.2725 16.0925 23.2641C18.2812 22.5323 23.6165 20.8425 26.3707 20.8359H39.2966C41.3034 20.8324 43.2269 20.0336 44.6459 18.6146C46.0649 17.1956 46.8637 15.272 46.8672 13.2653V8.47545C46.8584 6.47214 46.0574 4.55369 44.6389 3.13899C43.2205 1.7243 41.2999 0.928306 39.2966 0.924811H26.3707Z" fill="#3550A3"/>
</svg>
