<svg width="24" height="24" viewBox="0 0 24 24" fill="none" xmlns="http://www.w3.org/2000/svg">
<rect width="24" height="24" fill="#282731"/>
<g clip-path="url(#clip0)">
<rect width="360" height="675" transform="translate(-56 -215)" fill="#FDFDFD"/>
<rect x="-56" y="-191" width="360" height="309" fill="#F6F6F8"/>
<g clip-path="url(#clip1)">
<path d="M12.0009 23.9998C18.6283 23.9998 24.0008 18.6273 24.0008 11.9999C24.0008 5.37254 18.6283 0 12.0009 0C5.37353 0 0.000999451 5.37254 0.000999451 11.9999C0.000999451 18.6273 5.37353 23.9998 12.0009 23.9998Z" fill="#55ACEE"/>
<path d="M19.3504 8.62436C18.8362 8.85239 18.283 9.00662 17.7029 9.07549C18.2952 8.72062 18.7498 8.15911 18.9643 7.48893C18.4101 7.81771 17.796 8.05622 17.1429 8.18478C16.6197 7.62754 15.8742 7.2793 15.0487 7.2793C13.4649 7.2793 12.1804 8.56382 12.1804 10.1476C12.1804 10.3724 12.2059 10.5913 12.2551 10.8013C9.87126 10.6817 7.75762 9.53989 6.34282 7.80402C6.09597 8.22756 5.95437 8.72062 5.95437 9.24619C5.95437 10.2411 6.46112 11.1194 7.23033 11.6336C6.76038 11.6189 6.3178 11.4899 5.93126 11.2745C5.93105 11.2867 5.93105 11.2989 5.93105 11.3108C5.93105 12.7006 6.92017 13.8598 8.23207 14.1231C7.99164 14.189 7.73773 14.2239 7.47654 14.2239C7.2913 14.2239 7.11183 14.2061 6.93685 14.1727C7.30178 15.312 8.36085 16.1414 9.61628 16.1647C8.63444 16.9341 7.39783 17.3925 6.05362 17.3925C5.8226 17.3925 5.59371 17.379 5.36975 17.3523C6.63845 18.1664 8.14651 18.6411 9.76623 18.6411C15.0421 18.6411 17.9273 14.2705 17.9273 10.4798C17.9273 10.3555 17.9245 10.2317 17.919 10.1089C18.4798 9.7046 18.9661 9.19956 19.3504 8.62436Z" fill="#F1F2F2"/>
</g>
</g>
<defs>
<clipPath id="clip0">
<rect width="360" height="675" fill="white" transform="translate(-56 -215)"/>
</clipPath>
<clipPath id="clip1">
<rect width="24" height="24" fill="white"/>
</clipPath>
</defs>
</svg>
